%
M48
M72
T01C0.02362
T02C0.03150
T03C0.03200
T04C0.04000
T05C0.04200
T06C0.07480
%
T01
X34867Y46800
X49867Y61800
X54867Y36800
X14867Y76800
X39867Y96800
X79867Y91800
X104867Y96800
X109867Y141800
X149867Y181800
X129867Y191800
X129867Y191800
X94867Y201800
X199867Y166800
X154867Y41800
T02
X44945Y193099
X40221Y189950
X44945Y186800
X40221Y183650
X44945Y180501
T03
X69867Y176800
X74867Y184300
X79867Y176800
X94867Y166800
X94867Y156800
X94867Y146800
X94867Y136800
X94867Y126800
X94867Y116800
X94867Y106800
X94867Y96800
X94867Y86800
X94867Y76800
X94867Y66800
X94867Y56800
X94867Y46800
X94867Y36800
X124867Y36800
X124867Y46800
X124867Y56800
X124867Y66800
X124867Y76800
X124867Y86800
X124867Y96800
X124867Y106800
X124867Y116800
X124867Y126800
X124867Y136800
X124867Y146800
X124867Y156800
X134867Y156800
X134867Y166800
X124867Y166800
X114867Y181800
X104867Y181800
X79867Y151800
X69867Y151800
X69867Y131800
X79867Y131800
X59867Y71800
X59867Y61800
X49867Y61800
X49867Y31800
X139867Y86800
X149867Y86800
X154867Y71800
X154867Y41800
X154867Y21800
X144867Y21800
X174867Y21800
X184867Y21800
X194867Y21800
X194867Y51800
X169867Y151800
X169867Y181800
T04
X54867Y201800
X64867Y201800
X74867Y201800
X84867Y201800
X94867Y201800
X147367Y201800
X157367Y201800
X167367Y201800
X177367Y201800
X187367Y201800
X197367Y201800
X202367Y146800
X202367Y136800
X202367Y126800
X202367Y116800
X202367Y106800
X202367Y96800
X202367Y86800
X202367Y76800
X79867Y71800
X79867Y81800
X79867Y91800
X14867Y76800
X14867Y86800
X14867Y96800
X14867Y106800
X14867Y116800
X14867Y126800
X14867Y136800
X14867Y146800
T05
X184867Y166800
X199867Y166800
X34867Y46800
X19867Y46800
T06
X24867Y201170
X24867Y172430
M30
