G75*
%MOIN*%
%OFA0B0*%
%FSLAX25Y25*%
%IPPOS*%
%LPD*%
%AMOC8*
5,1,8,0,0,1.08239X$1,22.5*
%
%ADD10C,0.00000*%
D10*
X0009867Y0011800D02*
X0009867Y0208650D01*
X0206717Y0208650D01*
X0206717Y0011800D01*
X0009867Y0011800D01*
X0033686Y0046800D02*
X0033688Y0046869D01*
X0033694Y0046937D01*
X0033704Y0047005D01*
X0033718Y0047072D01*
X0033736Y0047139D01*
X0033757Y0047204D01*
X0033783Y0047268D01*
X0033812Y0047330D01*
X0033844Y0047390D01*
X0033880Y0047449D01*
X0033920Y0047505D01*
X0033962Y0047559D01*
X0034008Y0047610D01*
X0034057Y0047659D01*
X0034108Y0047705D01*
X0034162Y0047747D01*
X0034218Y0047787D01*
X0034276Y0047823D01*
X0034337Y0047855D01*
X0034399Y0047884D01*
X0034463Y0047910D01*
X0034528Y0047931D01*
X0034595Y0047949D01*
X0034662Y0047963D01*
X0034730Y0047973D01*
X0034798Y0047979D01*
X0034867Y0047981D01*
X0034936Y0047979D01*
X0035004Y0047973D01*
X0035072Y0047963D01*
X0035139Y0047949D01*
X0035206Y0047931D01*
X0035271Y0047910D01*
X0035335Y0047884D01*
X0035397Y0047855D01*
X0035457Y0047823D01*
X0035516Y0047787D01*
X0035572Y0047747D01*
X0035626Y0047705D01*
X0035677Y0047659D01*
X0035726Y0047610D01*
X0035772Y0047559D01*
X0035814Y0047505D01*
X0035854Y0047449D01*
X0035890Y0047390D01*
X0035922Y0047330D01*
X0035951Y0047268D01*
X0035977Y0047204D01*
X0035998Y0047139D01*
X0036016Y0047072D01*
X0036030Y0047005D01*
X0036040Y0046937D01*
X0036046Y0046869D01*
X0036048Y0046800D01*
X0036046Y0046731D01*
X0036040Y0046663D01*
X0036030Y0046595D01*
X0036016Y0046528D01*
X0035998Y0046461D01*
X0035977Y0046396D01*
X0035951Y0046332D01*
X0035922Y0046270D01*
X0035890Y0046209D01*
X0035854Y0046151D01*
X0035814Y0046095D01*
X0035772Y0046041D01*
X0035726Y0045990D01*
X0035677Y0045941D01*
X0035626Y0045895D01*
X0035572Y0045853D01*
X0035516Y0045813D01*
X0035458Y0045777D01*
X0035397Y0045745D01*
X0035335Y0045716D01*
X0035271Y0045690D01*
X0035206Y0045669D01*
X0035139Y0045651D01*
X0035072Y0045637D01*
X0035004Y0045627D01*
X0034936Y0045621D01*
X0034867Y0045619D01*
X0034798Y0045621D01*
X0034730Y0045627D01*
X0034662Y0045637D01*
X0034595Y0045651D01*
X0034528Y0045669D01*
X0034463Y0045690D01*
X0034399Y0045716D01*
X0034337Y0045745D01*
X0034276Y0045777D01*
X0034218Y0045813D01*
X0034162Y0045853D01*
X0034108Y0045895D01*
X0034057Y0045941D01*
X0034008Y0045990D01*
X0033962Y0046041D01*
X0033920Y0046095D01*
X0033880Y0046151D01*
X0033844Y0046209D01*
X0033812Y0046270D01*
X0033783Y0046332D01*
X0033757Y0046396D01*
X0033736Y0046461D01*
X0033718Y0046528D01*
X0033704Y0046595D01*
X0033694Y0046663D01*
X0033688Y0046731D01*
X0033686Y0046800D01*
X0013686Y0076800D02*
X0013688Y0076869D01*
X0013694Y0076937D01*
X0013704Y0077005D01*
X0013718Y0077072D01*
X0013736Y0077139D01*
X0013757Y0077204D01*
X0013783Y0077268D01*
X0013812Y0077330D01*
X0013844Y0077390D01*
X0013880Y0077449D01*
X0013920Y0077505D01*
X0013962Y0077559D01*
X0014008Y0077610D01*
X0014057Y0077659D01*
X0014108Y0077705D01*
X0014162Y0077747D01*
X0014218Y0077787D01*
X0014276Y0077823D01*
X0014337Y0077855D01*
X0014399Y0077884D01*
X0014463Y0077910D01*
X0014528Y0077931D01*
X0014595Y0077949D01*
X0014662Y0077963D01*
X0014730Y0077973D01*
X0014798Y0077979D01*
X0014867Y0077981D01*
X0014936Y0077979D01*
X0015004Y0077973D01*
X0015072Y0077963D01*
X0015139Y0077949D01*
X0015206Y0077931D01*
X0015271Y0077910D01*
X0015335Y0077884D01*
X0015397Y0077855D01*
X0015457Y0077823D01*
X0015516Y0077787D01*
X0015572Y0077747D01*
X0015626Y0077705D01*
X0015677Y0077659D01*
X0015726Y0077610D01*
X0015772Y0077559D01*
X0015814Y0077505D01*
X0015854Y0077449D01*
X0015890Y0077390D01*
X0015922Y0077330D01*
X0015951Y0077268D01*
X0015977Y0077204D01*
X0015998Y0077139D01*
X0016016Y0077072D01*
X0016030Y0077005D01*
X0016040Y0076937D01*
X0016046Y0076869D01*
X0016048Y0076800D01*
X0016046Y0076731D01*
X0016040Y0076663D01*
X0016030Y0076595D01*
X0016016Y0076528D01*
X0015998Y0076461D01*
X0015977Y0076396D01*
X0015951Y0076332D01*
X0015922Y0076270D01*
X0015890Y0076209D01*
X0015854Y0076151D01*
X0015814Y0076095D01*
X0015772Y0076041D01*
X0015726Y0075990D01*
X0015677Y0075941D01*
X0015626Y0075895D01*
X0015572Y0075853D01*
X0015516Y0075813D01*
X0015458Y0075777D01*
X0015397Y0075745D01*
X0015335Y0075716D01*
X0015271Y0075690D01*
X0015206Y0075669D01*
X0015139Y0075651D01*
X0015072Y0075637D01*
X0015004Y0075627D01*
X0014936Y0075621D01*
X0014867Y0075619D01*
X0014798Y0075621D01*
X0014730Y0075627D01*
X0014662Y0075637D01*
X0014595Y0075651D01*
X0014528Y0075669D01*
X0014463Y0075690D01*
X0014399Y0075716D01*
X0014337Y0075745D01*
X0014276Y0075777D01*
X0014218Y0075813D01*
X0014162Y0075853D01*
X0014108Y0075895D01*
X0014057Y0075941D01*
X0014008Y0075990D01*
X0013962Y0076041D01*
X0013920Y0076095D01*
X0013880Y0076151D01*
X0013844Y0076209D01*
X0013812Y0076270D01*
X0013783Y0076332D01*
X0013757Y0076396D01*
X0013736Y0076461D01*
X0013718Y0076528D01*
X0013704Y0076595D01*
X0013694Y0076663D01*
X0013688Y0076731D01*
X0013686Y0076800D01*
X0078686Y0091800D02*
X0078688Y0091869D01*
X0078694Y0091937D01*
X0078704Y0092005D01*
X0078718Y0092072D01*
X0078736Y0092139D01*
X0078757Y0092204D01*
X0078783Y0092268D01*
X0078812Y0092330D01*
X0078844Y0092390D01*
X0078880Y0092449D01*
X0078920Y0092505D01*
X0078962Y0092559D01*
X0079008Y0092610D01*
X0079057Y0092659D01*
X0079108Y0092705D01*
X0079162Y0092747D01*
X0079218Y0092787D01*
X0079276Y0092823D01*
X0079337Y0092855D01*
X0079399Y0092884D01*
X0079463Y0092910D01*
X0079528Y0092931D01*
X0079595Y0092949D01*
X0079662Y0092963D01*
X0079730Y0092973D01*
X0079798Y0092979D01*
X0079867Y0092981D01*
X0079936Y0092979D01*
X0080004Y0092973D01*
X0080072Y0092963D01*
X0080139Y0092949D01*
X0080206Y0092931D01*
X0080271Y0092910D01*
X0080335Y0092884D01*
X0080397Y0092855D01*
X0080457Y0092823D01*
X0080516Y0092787D01*
X0080572Y0092747D01*
X0080626Y0092705D01*
X0080677Y0092659D01*
X0080726Y0092610D01*
X0080772Y0092559D01*
X0080814Y0092505D01*
X0080854Y0092449D01*
X0080890Y0092390D01*
X0080922Y0092330D01*
X0080951Y0092268D01*
X0080977Y0092204D01*
X0080998Y0092139D01*
X0081016Y0092072D01*
X0081030Y0092005D01*
X0081040Y0091937D01*
X0081046Y0091869D01*
X0081048Y0091800D01*
X0081046Y0091731D01*
X0081040Y0091663D01*
X0081030Y0091595D01*
X0081016Y0091528D01*
X0080998Y0091461D01*
X0080977Y0091396D01*
X0080951Y0091332D01*
X0080922Y0091270D01*
X0080890Y0091209D01*
X0080854Y0091151D01*
X0080814Y0091095D01*
X0080772Y0091041D01*
X0080726Y0090990D01*
X0080677Y0090941D01*
X0080626Y0090895D01*
X0080572Y0090853D01*
X0080516Y0090813D01*
X0080458Y0090777D01*
X0080397Y0090745D01*
X0080335Y0090716D01*
X0080271Y0090690D01*
X0080206Y0090669D01*
X0080139Y0090651D01*
X0080072Y0090637D01*
X0080004Y0090627D01*
X0079936Y0090621D01*
X0079867Y0090619D01*
X0079798Y0090621D01*
X0079730Y0090627D01*
X0079662Y0090637D01*
X0079595Y0090651D01*
X0079528Y0090669D01*
X0079463Y0090690D01*
X0079399Y0090716D01*
X0079337Y0090745D01*
X0079276Y0090777D01*
X0079218Y0090813D01*
X0079162Y0090853D01*
X0079108Y0090895D01*
X0079057Y0090941D01*
X0079008Y0090990D01*
X0078962Y0091041D01*
X0078920Y0091095D01*
X0078880Y0091151D01*
X0078844Y0091209D01*
X0078812Y0091270D01*
X0078783Y0091332D01*
X0078757Y0091396D01*
X0078736Y0091461D01*
X0078718Y0091528D01*
X0078704Y0091595D01*
X0078694Y0091663D01*
X0078688Y0091731D01*
X0078686Y0091800D01*
X0153686Y0041800D02*
X0153688Y0041869D01*
X0153694Y0041937D01*
X0153704Y0042005D01*
X0153718Y0042072D01*
X0153736Y0042139D01*
X0153757Y0042204D01*
X0153783Y0042268D01*
X0153812Y0042330D01*
X0153844Y0042390D01*
X0153880Y0042449D01*
X0153920Y0042505D01*
X0153962Y0042559D01*
X0154008Y0042610D01*
X0154057Y0042659D01*
X0154108Y0042705D01*
X0154162Y0042747D01*
X0154218Y0042787D01*
X0154276Y0042823D01*
X0154337Y0042855D01*
X0154399Y0042884D01*
X0154463Y0042910D01*
X0154528Y0042931D01*
X0154595Y0042949D01*
X0154662Y0042963D01*
X0154730Y0042973D01*
X0154798Y0042979D01*
X0154867Y0042981D01*
X0154936Y0042979D01*
X0155004Y0042973D01*
X0155072Y0042963D01*
X0155139Y0042949D01*
X0155206Y0042931D01*
X0155271Y0042910D01*
X0155335Y0042884D01*
X0155397Y0042855D01*
X0155457Y0042823D01*
X0155516Y0042787D01*
X0155572Y0042747D01*
X0155626Y0042705D01*
X0155677Y0042659D01*
X0155726Y0042610D01*
X0155772Y0042559D01*
X0155814Y0042505D01*
X0155854Y0042449D01*
X0155890Y0042390D01*
X0155922Y0042330D01*
X0155951Y0042268D01*
X0155977Y0042204D01*
X0155998Y0042139D01*
X0156016Y0042072D01*
X0156030Y0042005D01*
X0156040Y0041937D01*
X0156046Y0041869D01*
X0156048Y0041800D01*
X0156046Y0041731D01*
X0156040Y0041663D01*
X0156030Y0041595D01*
X0156016Y0041528D01*
X0155998Y0041461D01*
X0155977Y0041396D01*
X0155951Y0041332D01*
X0155922Y0041270D01*
X0155890Y0041209D01*
X0155854Y0041151D01*
X0155814Y0041095D01*
X0155772Y0041041D01*
X0155726Y0040990D01*
X0155677Y0040941D01*
X0155626Y0040895D01*
X0155572Y0040853D01*
X0155516Y0040813D01*
X0155458Y0040777D01*
X0155397Y0040745D01*
X0155335Y0040716D01*
X0155271Y0040690D01*
X0155206Y0040669D01*
X0155139Y0040651D01*
X0155072Y0040637D01*
X0155004Y0040627D01*
X0154936Y0040621D01*
X0154867Y0040619D01*
X0154798Y0040621D01*
X0154730Y0040627D01*
X0154662Y0040637D01*
X0154595Y0040651D01*
X0154528Y0040669D01*
X0154463Y0040690D01*
X0154399Y0040716D01*
X0154337Y0040745D01*
X0154276Y0040777D01*
X0154218Y0040813D01*
X0154162Y0040853D01*
X0154108Y0040895D01*
X0154057Y0040941D01*
X0154008Y0040990D01*
X0153962Y0041041D01*
X0153920Y0041095D01*
X0153880Y0041151D01*
X0153844Y0041209D01*
X0153812Y0041270D01*
X0153783Y0041332D01*
X0153757Y0041396D01*
X0153736Y0041461D01*
X0153718Y0041528D01*
X0153704Y0041595D01*
X0153694Y0041663D01*
X0153688Y0041731D01*
X0153686Y0041800D01*
X0198686Y0166800D02*
X0198688Y0166869D01*
X0198694Y0166937D01*
X0198704Y0167005D01*
X0198718Y0167072D01*
X0198736Y0167139D01*
X0198757Y0167204D01*
X0198783Y0167268D01*
X0198812Y0167330D01*
X0198844Y0167390D01*
X0198880Y0167449D01*
X0198920Y0167505D01*
X0198962Y0167559D01*
X0199008Y0167610D01*
X0199057Y0167659D01*
X0199108Y0167705D01*
X0199162Y0167747D01*
X0199218Y0167787D01*
X0199276Y0167823D01*
X0199337Y0167855D01*
X0199399Y0167884D01*
X0199463Y0167910D01*
X0199528Y0167931D01*
X0199595Y0167949D01*
X0199662Y0167963D01*
X0199730Y0167973D01*
X0199798Y0167979D01*
X0199867Y0167981D01*
X0199936Y0167979D01*
X0200004Y0167973D01*
X0200072Y0167963D01*
X0200139Y0167949D01*
X0200206Y0167931D01*
X0200271Y0167910D01*
X0200335Y0167884D01*
X0200397Y0167855D01*
X0200457Y0167823D01*
X0200516Y0167787D01*
X0200572Y0167747D01*
X0200626Y0167705D01*
X0200677Y0167659D01*
X0200726Y0167610D01*
X0200772Y0167559D01*
X0200814Y0167505D01*
X0200854Y0167449D01*
X0200890Y0167390D01*
X0200922Y0167330D01*
X0200951Y0167268D01*
X0200977Y0167204D01*
X0200998Y0167139D01*
X0201016Y0167072D01*
X0201030Y0167005D01*
X0201040Y0166937D01*
X0201046Y0166869D01*
X0201048Y0166800D01*
X0201046Y0166731D01*
X0201040Y0166663D01*
X0201030Y0166595D01*
X0201016Y0166528D01*
X0200998Y0166461D01*
X0200977Y0166396D01*
X0200951Y0166332D01*
X0200922Y0166270D01*
X0200890Y0166209D01*
X0200854Y0166151D01*
X0200814Y0166095D01*
X0200772Y0166041D01*
X0200726Y0165990D01*
X0200677Y0165941D01*
X0200626Y0165895D01*
X0200572Y0165853D01*
X0200516Y0165813D01*
X0200458Y0165777D01*
X0200397Y0165745D01*
X0200335Y0165716D01*
X0200271Y0165690D01*
X0200206Y0165669D01*
X0200139Y0165651D01*
X0200072Y0165637D01*
X0200004Y0165627D01*
X0199936Y0165621D01*
X0199867Y0165619D01*
X0199798Y0165621D01*
X0199730Y0165627D01*
X0199662Y0165637D01*
X0199595Y0165651D01*
X0199528Y0165669D01*
X0199463Y0165690D01*
X0199399Y0165716D01*
X0199337Y0165745D01*
X0199276Y0165777D01*
X0199218Y0165813D01*
X0199162Y0165853D01*
X0199108Y0165895D01*
X0199057Y0165941D01*
X0199008Y0165990D01*
X0198962Y0166041D01*
X0198920Y0166095D01*
X0198880Y0166151D01*
X0198844Y0166209D01*
X0198812Y0166270D01*
X0198783Y0166332D01*
X0198757Y0166396D01*
X0198736Y0166461D01*
X0198718Y0166528D01*
X0198704Y0166595D01*
X0198694Y0166663D01*
X0198688Y0166731D01*
X0198686Y0166800D01*
X0093686Y0201800D02*
X0093688Y0201869D01*
X0093694Y0201937D01*
X0093704Y0202005D01*
X0093718Y0202072D01*
X0093736Y0202139D01*
X0093757Y0202204D01*
X0093783Y0202268D01*
X0093812Y0202330D01*
X0093844Y0202390D01*
X0093880Y0202449D01*
X0093920Y0202505D01*
X0093962Y0202559D01*
X0094008Y0202610D01*
X0094057Y0202659D01*
X0094108Y0202705D01*
X0094162Y0202747D01*
X0094218Y0202787D01*
X0094276Y0202823D01*
X0094337Y0202855D01*
X0094399Y0202884D01*
X0094463Y0202910D01*
X0094528Y0202931D01*
X0094595Y0202949D01*
X0094662Y0202963D01*
X0094730Y0202973D01*
X0094798Y0202979D01*
X0094867Y0202981D01*
X0094936Y0202979D01*
X0095004Y0202973D01*
X0095072Y0202963D01*
X0095139Y0202949D01*
X0095206Y0202931D01*
X0095271Y0202910D01*
X0095335Y0202884D01*
X0095397Y0202855D01*
X0095457Y0202823D01*
X0095516Y0202787D01*
X0095572Y0202747D01*
X0095626Y0202705D01*
X0095677Y0202659D01*
X0095726Y0202610D01*
X0095772Y0202559D01*
X0095814Y0202505D01*
X0095854Y0202449D01*
X0095890Y0202390D01*
X0095922Y0202330D01*
X0095951Y0202268D01*
X0095977Y0202204D01*
X0095998Y0202139D01*
X0096016Y0202072D01*
X0096030Y0202005D01*
X0096040Y0201937D01*
X0096046Y0201869D01*
X0096048Y0201800D01*
X0096046Y0201731D01*
X0096040Y0201663D01*
X0096030Y0201595D01*
X0096016Y0201528D01*
X0095998Y0201461D01*
X0095977Y0201396D01*
X0095951Y0201332D01*
X0095922Y0201270D01*
X0095890Y0201209D01*
X0095854Y0201151D01*
X0095814Y0201095D01*
X0095772Y0201041D01*
X0095726Y0200990D01*
X0095677Y0200941D01*
X0095626Y0200895D01*
X0095572Y0200853D01*
X0095516Y0200813D01*
X0095458Y0200777D01*
X0095397Y0200745D01*
X0095335Y0200716D01*
X0095271Y0200690D01*
X0095206Y0200669D01*
X0095139Y0200651D01*
X0095072Y0200637D01*
X0095004Y0200627D01*
X0094936Y0200621D01*
X0094867Y0200619D01*
X0094798Y0200621D01*
X0094730Y0200627D01*
X0094662Y0200637D01*
X0094595Y0200651D01*
X0094528Y0200669D01*
X0094463Y0200690D01*
X0094399Y0200716D01*
X0094337Y0200745D01*
X0094276Y0200777D01*
X0094218Y0200813D01*
X0094162Y0200853D01*
X0094108Y0200895D01*
X0094057Y0200941D01*
X0094008Y0200990D01*
X0093962Y0201041D01*
X0093920Y0201095D01*
X0093880Y0201151D01*
X0093844Y0201209D01*
X0093812Y0201270D01*
X0093783Y0201332D01*
X0093757Y0201396D01*
X0093736Y0201461D01*
X0093718Y0201528D01*
X0093704Y0201595D01*
X0093694Y0201663D01*
X0093688Y0201731D01*
X0093686Y0201800D01*
M02*
