G75*
%MOIN*%
%OFA0B0*%
%FSLAX25Y25*%
%IPPOS*%
%LPD*%
%AMOC8*
5,1,8,0,0,1.08239X$1,22.5*
%
%ADD10C,0.00000*%
%ADD11OC8,0.05200*%
%ADD12C,0.06300*%
%ADD13OC8,0.06300*%
%ADD14C,0.05150*%
%ADD15C,0.11220*%
%ADD16C,0.07400*%
%ADD17R,0.07400X0.07400*%
%ADD18C,0.05200*%
%ADD19C,0.01600*%
%ADD20C,0.03962*%
D10*
X0009867Y0011800D02*
X0009867Y0208650D01*
X0206717Y0208650D01*
X0206717Y0011800D01*
X0009867Y0011800D01*
X0033686Y0046800D02*
X0033688Y0046869D01*
X0033694Y0046937D01*
X0033704Y0047005D01*
X0033718Y0047072D01*
X0033736Y0047139D01*
X0033757Y0047204D01*
X0033783Y0047268D01*
X0033812Y0047330D01*
X0033844Y0047390D01*
X0033880Y0047449D01*
X0033920Y0047505D01*
X0033962Y0047559D01*
X0034008Y0047610D01*
X0034057Y0047659D01*
X0034108Y0047705D01*
X0034162Y0047747D01*
X0034218Y0047787D01*
X0034276Y0047823D01*
X0034337Y0047855D01*
X0034399Y0047884D01*
X0034463Y0047910D01*
X0034528Y0047931D01*
X0034595Y0047949D01*
X0034662Y0047963D01*
X0034730Y0047973D01*
X0034798Y0047979D01*
X0034867Y0047981D01*
X0034936Y0047979D01*
X0035004Y0047973D01*
X0035072Y0047963D01*
X0035139Y0047949D01*
X0035206Y0047931D01*
X0035271Y0047910D01*
X0035335Y0047884D01*
X0035397Y0047855D01*
X0035457Y0047823D01*
X0035516Y0047787D01*
X0035572Y0047747D01*
X0035626Y0047705D01*
X0035677Y0047659D01*
X0035726Y0047610D01*
X0035772Y0047559D01*
X0035814Y0047505D01*
X0035854Y0047449D01*
X0035890Y0047390D01*
X0035922Y0047330D01*
X0035951Y0047268D01*
X0035977Y0047204D01*
X0035998Y0047139D01*
X0036016Y0047072D01*
X0036030Y0047005D01*
X0036040Y0046937D01*
X0036046Y0046869D01*
X0036048Y0046800D01*
X0036046Y0046731D01*
X0036040Y0046663D01*
X0036030Y0046595D01*
X0036016Y0046528D01*
X0035998Y0046461D01*
X0035977Y0046396D01*
X0035951Y0046332D01*
X0035922Y0046270D01*
X0035890Y0046209D01*
X0035854Y0046151D01*
X0035814Y0046095D01*
X0035772Y0046041D01*
X0035726Y0045990D01*
X0035677Y0045941D01*
X0035626Y0045895D01*
X0035572Y0045853D01*
X0035516Y0045813D01*
X0035458Y0045777D01*
X0035397Y0045745D01*
X0035335Y0045716D01*
X0035271Y0045690D01*
X0035206Y0045669D01*
X0035139Y0045651D01*
X0035072Y0045637D01*
X0035004Y0045627D01*
X0034936Y0045621D01*
X0034867Y0045619D01*
X0034798Y0045621D01*
X0034730Y0045627D01*
X0034662Y0045637D01*
X0034595Y0045651D01*
X0034528Y0045669D01*
X0034463Y0045690D01*
X0034399Y0045716D01*
X0034337Y0045745D01*
X0034276Y0045777D01*
X0034218Y0045813D01*
X0034162Y0045853D01*
X0034108Y0045895D01*
X0034057Y0045941D01*
X0034008Y0045990D01*
X0033962Y0046041D01*
X0033920Y0046095D01*
X0033880Y0046151D01*
X0033844Y0046209D01*
X0033812Y0046270D01*
X0033783Y0046332D01*
X0033757Y0046396D01*
X0033736Y0046461D01*
X0033718Y0046528D01*
X0033704Y0046595D01*
X0033694Y0046663D01*
X0033688Y0046731D01*
X0033686Y0046800D01*
X0013686Y0076800D02*
X0013688Y0076869D01*
X0013694Y0076937D01*
X0013704Y0077005D01*
X0013718Y0077072D01*
X0013736Y0077139D01*
X0013757Y0077204D01*
X0013783Y0077268D01*
X0013812Y0077330D01*
X0013844Y0077390D01*
X0013880Y0077449D01*
X0013920Y0077505D01*
X0013962Y0077559D01*
X0014008Y0077610D01*
X0014057Y0077659D01*
X0014108Y0077705D01*
X0014162Y0077747D01*
X0014218Y0077787D01*
X0014276Y0077823D01*
X0014337Y0077855D01*
X0014399Y0077884D01*
X0014463Y0077910D01*
X0014528Y0077931D01*
X0014595Y0077949D01*
X0014662Y0077963D01*
X0014730Y0077973D01*
X0014798Y0077979D01*
X0014867Y0077981D01*
X0014936Y0077979D01*
X0015004Y0077973D01*
X0015072Y0077963D01*
X0015139Y0077949D01*
X0015206Y0077931D01*
X0015271Y0077910D01*
X0015335Y0077884D01*
X0015397Y0077855D01*
X0015457Y0077823D01*
X0015516Y0077787D01*
X0015572Y0077747D01*
X0015626Y0077705D01*
X0015677Y0077659D01*
X0015726Y0077610D01*
X0015772Y0077559D01*
X0015814Y0077505D01*
X0015854Y0077449D01*
X0015890Y0077390D01*
X0015922Y0077330D01*
X0015951Y0077268D01*
X0015977Y0077204D01*
X0015998Y0077139D01*
X0016016Y0077072D01*
X0016030Y0077005D01*
X0016040Y0076937D01*
X0016046Y0076869D01*
X0016048Y0076800D01*
X0016046Y0076731D01*
X0016040Y0076663D01*
X0016030Y0076595D01*
X0016016Y0076528D01*
X0015998Y0076461D01*
X0015977Y0076396D01*
X0015951Y0076332D01*
X0015922Y0076270D01*
X0015890Y0076209D01*
X0015854Y0076151D01*
X0015814Y0076095D01*
X0015772Y0076041D01*
X0015726Y0075990D01*
X0015677Y0075941D01*
X0015626Y0075895D01*
X0015572Y0075853D01*
X0015516Y0075813D01*
X0015458Y0075777D01*
X0015397Y0075745D01*
X0015335Y0075716D01*
X0015271Y0075690D01*
X0015206Y0075669D01*
X0015139Y0075651D01*
X0015072Y0075637D01*
X0015004Y0075627D01*
X0014936Y0075621D01*
X0014867Y0075619D01*
X0014798Y0075621D01*
X0014730Y0075627D01*
X0014662Y0075637D01*
X0014595Y0075651D01*
X0014528Y0075669D01*
X0014463Y0075690D01*
X0014399Y0075716D01*
X0014337Y0075745D01*
X0014276Y0075777D01*
X0014218Y0075813D01*
X0014162Y0075853D01*
X0014108Y0075895D01*
X0014057Y0075941D01*
X0014008Y0075990D01*
X0013962Y0076041D01*
X0013920Y0076095D01*
X0013880Y0076151D01*
X0013844Y0076209D01*
X0013812Y0076270D01*
X0013783Y0076332D01*
X0013757Y0076396D01*
X0013736Y0076461D01*
X0013718Y0076528D01*
X0013704Y0076595D01*
X0013694Y0076663D01*
X0013688Y0076731D01*
X0013686Y0076800D01*
X0078686Y0091800D02*
X0078688Y0091869D01*
X0078694Y0091937D01*
X0078704Y0092005D01*
X0078718Y0092072D01*
X0078736Y0092139D01*
X0078757Y0092204D01*
X0078783Y0092268D01*
X0078812Y0092330D01*
X0078844Y0092390D01*
X0078880Y0092449D01*
X0078920Y0092505D01*
X0078962Y0092559D01*
X0079008Y0092610D01*
X0079057Y0092659D01*
X0079108Y0092705D01*
X0079162Y0092747D01*
X0079218Y0092787D01*
X0079276Y0092823D01*
X0079337Y0092855D01*
X0079399Y0092884D01*
X0079463Y0092910D01*
X0079528Y0092931D01*
X0079595Y0092949D01*
X0079662Y0092963D01*
X0079730Y0092973D01*
X0079798Y0092979D01*
X0079867Y0092981D01*
X0079936Y0092979D01*
X0080004Y0092973D01*
X0080072Y0092963D01*
X0080139Y0092949D01*
X0080206Y0092931D01*
X0080271Y0092910D01*
X0080335Y0092884D01*
X0080397Y0092855D01*
X0080457Y0092823D01*
X0080516Y0092787D01*
X0080572Y0092747D01*
X0080626Y0092705D01*
X0080677Y0092659D01*
X0080726Y0092610D01*
X0080772Y0092559D01*
X0080814Y0092505D01*
X0080854Y0092449D01*
X0080890Y0092390D01*
X0080922Y0092330D01*
X0080951Y0092268D01*
X0080977Y0092204D01*
X0080998Y0092139D01*
X0081016Y0092072D01*
X0081030Y0092005D01*
X0081040Y0091937D01*
X0081046Y0091869D01*
X0081048Y0091800D01*
X0081046Y0091731D01*
X0081040Y0091663D01*
X0081030Y0091595D01*
X0081016Y0091528D01*
X0080998Y0091461D01*
X0080977Y0091396D01*
X0080951Y0091332D01*
X0080922Y0091270D01*
X0080890Y0091209D01*
X0080854Y0091151D01*
X0080814Y0091095D01*
X0080772Y0091041D01*
X0080726Y0090990D01*
X0080677Y0090941D01*
X0080626Y0090895D01*
X0080572Y0090853D01*
X0080516Y0090813D01*
X0080458Y0090777D01*
X0080397Y0090745D01*
X0080335Y0090716D01*
X0080271Y0090690D01*
X0080206Y0090669D01*
X0080139Y0090651D01*
X0080072Y0090637D01*
X0080004Y0090627D01*
X0079936Y0090621D01*
X0079867Y0090619D01*
X0079798Y0090621D01*
X0079730Y0090627D01*
X0079662Y0090637D01*
X0079595Y0090651D01*
X0079528Y0090669D01*
X0079463Y0090690D01*
X0079399Y0090716D01*
X0079337Y0090745D01*
X0079276Y0090777D01*
X0079218Y0090813D01*
X0079162Y0090853D01*
X0079108Y0090895D01*
X0079057Y0090941D01*
X0079008Y0090990D01*
X0078962Y0091041D01*
X0078920Y0091095D01*
X0078880Y0091151D01*
X0078844Y0091209D01*
X0078812Y0091270D01*
X0078783Y0091332D01*
X0078757Y0091396D01*
X0078736Y0091461D01*
X0078718Y0091528D01*
X0078704Y0091595D01*
X0078694Y0091663D01*
X0078688Y0091731D01*
X0078686Y0091800D01*
X0153686Y0041800D02*
X0153688Y0041869D01*
X0153694Y0041937D01*
X0153704Y0042005D01*
X0153718Y0042072D01*
X0153736Y0042139D01*
X0153757Y0042204D01*
X0153783Y0042268D01*
X0153812Y0042330D01*
X0153844Y0042390D01*
X0153880Y0042449D01*
X0153920Y0042505D01*
X0153962Y0042559D01*
X0154008Y0042610D01*
X0154057Y0042659D01*
X0154108Y0042705D01*
X0154162Y0042747D01*
X0154218Y0042787D01*
X0154276Y0042823D01*
X0154337Y0042855D01*
X0154399Y0042884D01*
X0154463Y0042910D01*
X0154528Y0042931D01*
X0154595Y0042949D01*
X0154662Y0042963D01*
X0154730Y0042973D01*
X0154798Y0042979D01*
X0154867Y0042981D01*
X0154936Y0042979D01*
X0155004Y0042973D01*
X0155072Y0042963D01*
X0155139Y0042949D01*
X0155206Y0042931D01*
X0155271Y0042910D01*
X0155335Y0042884D01*
X0155397Y0042855D01*
X0155457Y0042823D01*
X0155516Y0042787D01*
X0155572Y0042747D01*
X0155626Y0042705D01*
X0155677Y0042659D01*
X0155726Y0042610D01*
X0155772Y0042559D01*
X0155814Y0042505D01*
X0155854Y0042449D01*
X0155890Y0042390D01*
X0155922Y0042330D01*
X0155951Y0042268D01*
X0155977Y0042204D01*
X0155998Y0042139D01*
X0156016Y0042072D01*
X0156030Y0042005D01*
X0156040Y0041937D01*
X0156046Y0041869D01*
X0156048Y0041800D01*
X0156046Y0041731D01*
X0156040Y0041663D01*
X0156030Y0041595D01*
X0156016Y0041528D01*
X0155998Y0041461D01*
X0155977Y0041396D01*
X0155951Y0041332D01*
X0155922Y0041270D01*
X0155890Y0041209D01*
X0155854Y0041151D01*
X0155814Y0041095D01*
X0155772Y0041041D01*
X0155726Y0040990D01*
X0155677Y0040941D01*
X0155626Y0040895D01*
X0155572Y0040853D01*
X0155516Y0040813D01*
X0155458Y0040777D01*
X0155397Y0040745D01*
X0155335Y0040716D01*
X0155271Y0040690D01*
X0155206Y0040669D01*
X0155139Y0040651D01*
X0155072Y0040637D01*
X0155004Y0040627D01*
X0154936Y0040621D01*
X0154867Y0040619D01*
X0154798Y0040621D01*
X0154730Y0040627D01*
X0154662Y0040637D01*
X0154595Y0040651D01*
X0154528Y0040669D01*
X0154463Y0040690D01*
X0154399Y0040716D01*
X0154337Y0040745D01*
X0154276Y0040777D01*
X0154218Y0040813D01*
X0154162Y0040853D01*
X0154108Y0040895D01*
X0154057Y0040941D01*
X0154008Y0040990D01*
X0153962Y0041041D01*
X0153920Y0041095D01*
X0153880Y0041151D01*
X0153844Y0041209D01*
X0153812Y0041270D01*
X0153783Y0041332D01*
X0153757Y0041396D01*
X0153736Y0041461D01*
X0153718Y0041528D01*
X0153704Y0041595D01*
X0153694Y0041663D01*
X0153688Y0041731D01*
X0153686Y0041800D01*
X0198686Y0166800D02*
X0198688Y0166869D01*
X0198694Y0166937D01*
X0198704Y0167005D01*
X0198718Y0167072D01*
X0198736Y0167139D01*
X0198757Y0167204D01*
X0198783Y0167268D01*
X0198812Y0167330D01*
X0198844Y0167390D01*
X0198880Y0167449D01*
X0198920Y0167505D01*
X0198962Y0167559D01*
X0199008Y0167610D01*
X0199057Y0167659D01*
X0199108Y0167705D01*
X0199162Y0167747D01*
X0199218Y0167787D01*
X0199276Y0167823D01*
X0199337Y0167855D01*
X0199399Y0167884D01*
X0199463Y0167910D01*
X0199528Y0167931D01*
X0199595Y0167949D01*
X0199662Y0167963D01*
X0199730Y0167973D01*
X0199798Y0167979D01*
X0199867Y0167981D01*
X0199936Y0167979D01*
X0200004Y0167973D01*
X0200072Y0167963D01*
X0200139Y0167949D01*
X0200206Y0167931D01*
X0200271Y0167910D01*
X0200335Y0167884D01*
X0200397Y0167855D01*
X0200457Y0167823D01*
X0200516Y0167787D01*
X0200572Y0167747D01*
X0200626Y0167705D01*
X0200677Y0167659D01*
X0200726Y0167610D01*
X0200772Y0167559D01*
X0200814Y0167505D01*
X0200854Y0167449D01*
X0200890Y0167390D01*
X0200922Y0167330D01*
X0200951Y0167268D01*
X0200977Y0167204D01*
X0200998Y0167139D01*
X0201016Y0167072D01*
X0201030Y0167005D01*
X0201040Y0166937D01*
X0201046Y0166869D01*
X0201048Y0166800D01*
X0201046Y0166731D01*
X0201040Y0166663D01*
X0201030Y0166595D01*
X0201016Y0166528D01*
X0200998Y0166461D01*
X0200977Y0166396D01*
X0200951Y0166332D01*
X0200922Y0166270D01*
X0200890Y0166209D01*
X0200854Y0166151D01*
X0200814Y0166095D01*
X0200772Y0166041D01*
X0200726Y0165990D01*
X0200677Y0165941D01*
X0200626Y0165895D01*
X0200572Y0165853D01*
X0200516Y0165813D01*
X0200458Y0165777D01*
X0200397Y0165745D01*
X0200335Y0165716D01*
X0200271Y0165690D01*
X0200206Y0165669D01*
X0200139Y0165651D01*
X0200072Y0165637D01*
X0200004Y0165627D01*
X0199936Y0165621D01*
X0199867Y0165619D01*
X0199798Y0165621D01*
X0199730Y0165627D01*
X0199662Y0165637D01*
X0199595Y0165651D01*
X0199528Y0165669D01*
X0199463Y0165690D01*
X0199399Y0165716D01*
X0199337Y0165745D01*
X0199276Y0165777D01*
X0199218Y0165813D01*
X0199162Y0165853D01*
X0199108Y0165895D01*
X0199057Y0165941D01*
X0199008Y0165990D01*
X0198962Y0166041D01*
X0198920Y0166095D01*
X0198880Y0166151D01*
X0198844Y0166209D01*
X0198812Y0166270D01*
X0198783Y0166332D01*
X0198757Y0166396D01*
X0198736Y0166461D01*
X0198718Y0166528D01*
X0198704Y0166595D01*
X0198694Y0166663D01*
X0198688Y0166731D01*
X0198686Y0166800D01*
X0093686Y0201800D02*
X0093688Y0201869D01*
X0093694Y0201937D01*
X0093704Y0202005D01*
X0093718Y0202072D01*
X0093736Y0202139D01*
X0093757Y0202204D01*
X0093783Y0202268D01*
X0093812Y0202330D01*
X0093844Y0202390D01*
X0093880Y0202449D01*
X0093920Y0202505D01*
X0093962Y0202559D01*
X0094008Y0202610D01*
X0094057Y0202659D01*
X0094108Y0202705D01*
X0094162Y0202747D01*
X0094218Y0202787D01*
X0094276Y0202823D01*
X0094337Y0202855D01*
X0094399Y0202884D01*
X0094463Y0202910D01*
X0094528Y0202931D01*
X0094595Y0202949D01*
X0094662Y0202963D01*
X0094730Y0202973D01*
X0094798Y0202979D01*
X0094867Y0202981D01*
X0094936Y0202979D01*
X0095004Y0202973D01*
X0095072Y0202963D01*
X0095139Y0202949D01*
X0095206Y0202931D01*
X0095271Y0202910D01*
X0095335Y0202884D01*
X0095397Y0202855D01*
X0095457Y0202823D01*
X0095516Y0202787D01*
X0095572Y0202747D01*
X0095626Y0202705D01*
X0095677Y0202659D01*
X0095726Y0202610D01*
X0095772Y0202559D01*
X0095814Y0202505D01*
X0095854Y0202449D01*
X0095890Y0202390D01*
X0095922Y0202330D01*
X0095951Y0202268D01*
X0095977Y0202204D01*
X0095998Y0202139D01*
X0096016Y0202072D01*
X0096030Y0202005D01*
X0096040Y0201937D01*
X0096046Y0201869D01*
X0096048Y0201800D01*
X0096046Y0201731D01*
X0096040Y0201663D01*
X0096030Y0201595D01*
X0096016Y0201528D01*
X0095998Y0201461D01*
X0095977Y0201396D01*
X0095951Y0201332D01*
X0095922Y0201270D01*
X0095890Y0201209D01*
X0095854Y0201151D01*
X0095814Y0201095D01*
X0095772Y0201041D01*
X0095726Y0200990D01*
X0095677Y0200941D01*
X0095626Y0200895D01*
X0095572Y0200853D01*
X0095516Y0200813D01*
X0095458Y0200777D01*
X0095397Y0200745D01*
X0095335Y0200716D01*
X0095271Y0200690D01*
X0095206Y0200669D01*
X0095139Y0200651D01*
X0095072Y0200637D01*
X0095004Y0200627D01*
X0094936Y0200621D01*
X0094867Y0200619D01*
X0094798Y0200621D01*
X0094730Y0200627D01*
X0094662Y0200637D01*
X0094595Y0200651D01*
X0094528Y0200669D01*
X0094463Y0200690D01*
X0094399Y0200716D01*
X0094337Y0200745D01*
X0094276Y0200777D01*
X0094218Y0200813D01*
X0094162Y0200853D01*
X0094108Y0200895D01*
X0094057Y0200941D01*
X0094008Y0200990D01*
X0093962Y0201041D01*
X0093920Y0201095D01*
X0093880Y0201151D01*
X0093844Y0201209D01*
X0093812Y0201270D01*
X0093783Y0201332D01*
X0093757Y0201396D01*
X0093736Y0201461D01*
X0093718Y0201528D01*
X0093704Y0201595D01*
X0093694Y0201663D01*
X0093688Y0201731D01*
X0093686Y0201800D01*
D11*
X0074867Y0184300D03*
X0079867Y0176800D03*
X0069867Y0176800D03*
X0104867Y0181800D03*
X0114867Y0181800D03*
X0134867Y0166800D03*
X0134867Y0156800D03*
X0169867Y0151800D03*
X0169867Y0181800D03*
X0079867Y0131800D03*
X0069867Y0131800D03*
X0059867Y0071800D03*
X0059867Y0061800D03*
X0049867Y0061800D03*
X0049867Y0031800D03*
X0144867Y0021800D03*
X0154867Y0021800D03*
X0174867Y0021800D03*
X0184867Y0021800D03*
X0194867Y0021800D03*
X0194867Y0051800D03*
X0154867Y0041800D03*
X0154867Y0071800D03*
D12*
X0139867Y0086800D03*
X0079867Y0151800D03*
X0184867Y0166800D03*
X0199867Y0166800D03*
X0034867Y0046800D03*
X0019867Y0046800D03*
D13*
X0069867Y0151800D03*
X0149867Y0086800D03*
D14*
X0044945Y0180501D03*
X0040221Y0183650D03*
X0044945Y0186800D03*
X0040221Y0189950D03*
X0044945Y0193099D03*
D15*
X0024867Y0201170D03*
X0024867Y0172430D03*
D16*
X0014867Y0146800D03*
X0014867Y0136800D03*
X0014867Y0126800D03*
X0014867Y0116800D03*
X0014867Y0106800D03*
X0014867Y0096800D03*
X0014867Y0086800D03*
X0079867Y0081800D03*
X0079867Y0071800D03*
X0079867Y0091800D03*
X0084867Y0201800D03*
X0094867Y0201800D03*
X0074867Y0201800D03*
X0064867Y0201800D03*
X0054867Y0201800D03*
X0147367Y0201800D03*
X0157367Y0201800D03*
X0167367Y0201800D03*
X0177367Y0201800D03*
X0187367Y0201800D03*
X0197367Y0201800D03*
X0202367Y0146800D03*
X0202367Y0136800D03*
X0202367Y0126800D03*
X0202367Y0116800D03*
X0202367Y0106800D03*
X0202367Y0096800D03*
X0202367Y0086800D03*
D17*
X0202367Y0076800D03*
X0014867Y0076800D03*
D18*
X0092267Y0076800D02*
X0097467Y0076800D01*
X0097467Y0086800D02*
X0092267Y0086800D01*
X0092267Y0096800D02*
X0097467Y0096800D01*
X0097467Y0106800D02*
X0092267Y0106800D01*
X0092267Y0116800D02*
X0097467Y0116800D01*
X0097467Y0126800D02*
X0092267Y0126800D01*
X0092267Y0136800D02*
X0097467Y0136800D01*
X0097467Y0146800D02*
X0092267Y0146800D01*
X0092267Y0156800D02*
X0097467Y0156800D01*
X0097467Y0166800D02*
X0092267Y0166800D01*
X0122267Y0166800D02*
X0127467Y0166800D01*
X0127467Y0156800D02*
X0122267Y0156800D01*
X0122267Y0146800D02*
X0127467Y0146800D01*
X0127467Y0136800D02*
X0122267Y0136800D01*
X0122267Y0126800D02*
X0127467Y0126800D01*
X0127467Y0116800D02*
X0122267Y0116800D01*
X0122267Y0106800D02*
X0127467Y0106800D01*
X0127467Y0096800D02*
X0122267Y0096800D01*
X0122267Y0086800D02*
X0127467Y0086800D01*
X0127467Y0076800D02*
X0122267Y0076800D01*
X0122267Y0066800D02*
X0127467Y0066800D01*
X0127467Y0056800D02*
X0122267Y0056800D01*
X0122267Y0046800D02*
X0127467Y0046800D01*
X0127467Y0036800D02*
X0122267Y0036800D01*
X0097467Y0036800D02*
X0092267Y0036800D01*
X0092267Y0046800D02*
X0097467Y0046800D01*
X0097467Y0056800D02*
X0092267Y0056800D01*
X0092267Y0066800D02*
X0097467Y0066800D01*
D19*
X0099153Y0062952D02*
X0102467Y0062952D01*
X0102467Y0061354D02*
X0068707Y0061354D01*
X0067108Y0062952D02*
X0090581Y0062952D01*
X0089888Y0063239D02*
X0091431Y0062600D01*
X0098302Y0062600D01*
X0099846Y0063239D01*
X0101027Y0064421D01*
X0101667Y0065965D01*
X0101667Y0067635D01*
X0101027Y0069179D01*
X0099846Y0070361D01*
X0098302Y0071000D01*
X0091431Y0071000D01*
X0089888Y0070361D01*
X0088706Y0069179D01*
X0088067Y0067635D01*
X0088067Y0065965D01*
X0088706Y0064421D01*
X0089888Y0063239D01*
X0088652Y0064551D02*
X0063055Y0064551D01*
X0063406Y0064200D02*
X0061606Y0066000D01*
X0058127Y0066000D01*
X0056327Y0064200D01*
X0053406Y0064200D01*
X0052267Y0065340D01*
X0052267Y0077277D01*
X0051901Y0078159D01*
X0051226Y0078835D01*
X0041901Y0088159D01*
X0041901Y0088159D01*
X0041226Y0088835D01*
X0040344Y0089200D01*
X0019609Y0089200D01*
X0019360Y0089802D01*
X0017869Y0091293D01*
X0016645Y0091800D01*
X0017869Y0092307D01*
X0019360Y0093798D01*
X0020167Y0095746D01*
X0020167Y0097854D01*
X0019360Y0099802D01*
X0017869Y0101293D01*
X0016645Y0101800D01*
X0017869Y0102307D01*
X0019360Y0103798D01*
X0020167Y0105746D01*
X0020167Y0107854D01*
X0019360Y0109802D01*
X0017869Y0111293D01*
X0016645Y0111800D01*
X0017869Y0112307D01*
X0019360Y0113798D01*
X0020167Y0115746D01*
X0020167Y0117854D01*
X0019360Y0119802D01*
X0017869Y0121293D01*
X0016645Y0121800D01*
X0017869Y0122307D01*
X0019360Y0123798D01*
X0020167Y0125746D01*
X0020167Y0127854D01*
X0019360Y0129802D01*
X0017869Y0131293D01*
X0016645Y0131800D01*
X0017869Y0132307D01*
X0019360Y0133798D01*
X0020167Y0135746D01*
X0020167Y0137854D01*
X0019360Y0139802D01*
X0017869Y0141293D01*
X0016645Y0141800D01*
X0017869Y0142307D01*
X0019360Y0143798D01*
X0020167Y0145746D01*
X0020167Y0147854D01*
X0019360Y0149802D01*
X0017869Y0151293D01*
X0015921Y0152100D01*
X0014667Y0152100D01*
X0014667Y0203850D01*
X0018173Y0203850D01*
X0017656Y0202604D01*
X0017656Y0199736D01*
X0018754Y0197086D01*
X0020782Y0195058D01*
X0023432Y0193960D01*
X0026301Y0193960D01*
X0028951Y0195058D01*
X0030979Y0197086D01*
X0032077Y0199736D01*
X0032077Y0202604D01*
X0031561Y0203850D01*
X0038545Y0203850D01*
X0038507Y0203835D01*
X0037832Y0203159D01*
X0032832Y0198159D01*
X0032467Y0197277D01*
X0032467Y0191323D01*
X0032832Y0190441D01*
X0033507Y0189765D01*
X0035358Y0187915D01*
X0036240Y0187550D01*
X0036717Y0187550D01*
X0037467Y0186800D01*
X0036682Y0186015D01*
X0036046Y0184481D01*
X0036046Y0182820D01*
X0036682Y0181286D01*
X0037821Y0180146D01*
X0037821Y0099819D01*
X0036831Y0098829D01*
X0036286Y0097512D01*
X0036286Y0096088D01*
X0036831Y0094771D01*
X0037838Y0093764D01*
X0039154Y0093219D01*
X0040579Y0093219D01*
X0041895Y0093764D01*
X0042903Y0094771D01*
X0043448Y0096088D01*
X0043448Y0097512D01*
X0042903Y0098829D01*
X0042621Y0099110D01*
X0042621Y0176782D01*
X0042652Y0176759D01*
X0043266Y0176446D01*
X0043921Y0176234D01*
X0044601Y0176126D01*
X0044945Y0176126D01*
X0044945Y0180501D01*
X0044945Y0180501D01*
X0044946Y0180501D02*
X0049320Y0180501D01*
X0049320Y0180845D01*
X0049212Y0181525D01*
X0049000Y0182180D01*
X0048687Y0182794D01*
X0048282Y0183351D01*
X0047841Y0183792D01*
X0048449Y0184400D01*
X0048873Y0184400D01*
X0052467Y0180806D01*
X0052467Y0126323D01*
X0052832Y0125441D01*
X0053507Y0124765D01*
X0068507Y0109765D01*
X0069389Y0109400D01*
X0088927Y0109400D01*
X0088706Y0109179D01*
X0088067Y0107635D01*
X0088067Y0105965D01*
X0088706Y0104421D01*
X0089888Y0103239D01*
X0091431Y0102600D01*
X0098302Y0102600D01*
X0099846Y0103239D01*
X0101027Y0104421D01*
X0101667Y0105965D01*
X0101667Y0106606D01*
X0113507Y0094765D01*
X0114389Y0094400D01*
X0118727Y0094400D01*
X0119888Y0093239D01*
X0121431Y0092600D01*
X0128302Y0092600D01*
X0129846Y0093239D01*
X0131027Y0094421D01*
X0131667Y0095965D01*
X0131667Y0097635D01*
X0131027Y0099179D01*
X0129846Y0100361D01*
X0128302Y0101000D01*
X0121431Y0101000D01*
X0119888Y0100361D01*
X0118727Y0099200D01*
X0115861Y0099200D01*
X0101901Y0113159D01*
X0101226Y0113835D01*
X0100671Y0114065D01*
X0101027Y0114421D01*
X0101667Y0115965D01*
X0101667Y0116606D01*
X0113507Y0104765D01*
X0114389Y0104400D01*
X0118727Y0104400D01*
X0119888Y0103239D01*
X0121431Y0102600D01*
X0128302Y0102600D01*
X0129846Y0103239D01*
X0131027Y0104421D01*
X0131667Y0105965D01*
X0131667Y0107635D01*
X0131027Y0109179D01*
X0129846Y0110361D01*
X0128302Y0111000D01*
X0121431Y0111000D01*
X0119888Y0110361D01*
X0118727Y0109200D01*
X0115861Y0109200D01*
X0101901Y0123159D01*
X0101901Y0123159D01*
X0101226Y0123835D01*
X0100671Y0124065D01*
X0101027Y0124421D01*
X0101158Y0124737D01*
X0101226Y0124765D01*
X0101901Y0125441D01*
X0105861Y0129400D01*
X0118927Y0129400D01*
X0118706Y0129179D01*
X0118067Y0127635D01*
X0118067Y0125965D01*
X0118706Y0124421D01*
X0119888Y0123239D01*
X0121431Y0122600D01*
X0128302Y0122600D01*
X0129846Y0123239D01*
X0131027Y0124421D01*
X0131667Y0125965D01*
X0131667Y0127635D01*
X0131027Y0129179D01*
X0130806Y0129400D01*
X0150344Y0129400D01*
X0151226Y0129765D01*
X0151901Y0130441D01*
X0159401Y0137941D01*
X0159767Y0138823D01*
X0159767Y0197057D01*
X0160369Y0197307D01*
X0161860Y0198798D01*
X0162367Y0200022D01*
X0162874Y0198798D01*
X0164364Y0197307D01*
X0166312Y0196500D01*
X0168421Y0196500D01*
X0170369Y0197307D01*
X0171860Y0198798D01*
X0172252Y0199744D01*
X0172270Y0199689D01*
X0172663Y0198917D01*
X0173171Y0198217D01*
X0173784Y0197605D01*
X0174484Y0197096D01*
X0175255Y0196703D01*
X0176079Y0196435D01*
X0176934Y0196300D01*
X0177167Y0196300D01*
X0177167Y0201600D01*
X0177567Y0201600D01*
X0177567Y0196300D01*
X0177800Y0196300D01*
X0178655Y0196435D01*
X0179478Y0196703D01*
X0180249Y0197096D01*
X0180950Y0197605D01*
X0181562Y0198217D01*
X0182071Y0198917D01*
X0182464Y0199689D01*
X0182482Y0199744D01*
X0182874Y0198798D01*
X0184364Y0197307D01*
X0186312Y0196500D01*
X0188421Y0196500D01*
X0190369Y0197307D01*
X0191860Y0198798D01*
X0192367Y0200022D01*
X0192874Y0198798D01*
X0194364Y0197307D01*
X0196312Y0196500D01*
X0198421Y0196500D01*
X0200369Y0197307D01*
X0201860Y0198798D01*
X0201917Y0198936D01*
X0201917Y0172425D01*
X0201056Y0172781D01*
X0198677Y0172781D01*
X0196479Y0171871D01*
X0194834Y0170226D01*
X0181226Y0183835D01*
X0180344Y0184200D01*
X0173406Y0184200D01*
X0171606Y0186000D01*
X0168127Y0186000D01*
X0165667Y0183540D01*
X0165667Y0180060D01*
X0168127Y0177600D01*
X0171606Y0177600D01*
X0173406Y0179400D01*
X0178873Y0179400D01*
X0187008Y0171264D01*
X0186767Y0171387D01*
X0186026Y0171628D01*
X0185256Y0171750D01*
X0185117Y0171750D01*
X0185117Y0167050D01*
X0189817Y0167050D01*
X0189817Y0167190D01*
X0189695Y0167959D01*
X0189454Y0168700D01*
X0189331Y0168942D01*
X0192832Y0165441D01*
X0192832Y0165441D01*
X0193507Y0164765D01*
X0194386Y0164401D01*
X0194796Y0163412D01*
X0196479Y0161729D01*
X0198677Y0160819D01*
X0201056Y0160819D01*
X0201917Y0161175D01*
X0201917Y0152100D01*
X0201312Y0152100D01*
X0199364Y0151293D01*
X0197874Y0149802D01*
X0197067Y0147854D01*
X0197067Y0145746D01*
X0197874Y0143798D01*
X0199364Y0142307D01*
X0200588Y0141800D01*
X0199364Y0141293D01*
X0197874Y0139802D01*
X0197067Y0137854D01*
X0197067Y0135746D01*
X0197874Y0133798D01*
X0199364Y0132307D01*
X0200588Y0131800D01*
X0199364Y0131293D01*
X0197874Y0129802D01*
X0197067Y0127854D01*
X0197067Y0125746D01*
X0197874Y0123798D01*
X0199364Y0122307D01*
X0200588Y0121800D01*
X0199364Y0121293D01*
X0197874Y0119802D01*
X0197067Y0117854D01*
X0197067Y0115746D01*
X0197874Y0113798D01*
X0199364Y0112307D01*
X0200588Y0111800D01*
X0199364Y0111293D01*
X0197874Y0109802D01*
X0197067Y0107854D01*
X0197067Y0105746D01*
X0197874Y0103798D01*
X0199364Y0102307D01*
X0200588Y0101800D01*
X0199364Y0101293D01*
X0197874Y0099802D01*
X0197067Y0097854D01*
X0197067Y0095746D01*
X0197874Y0093798D01*
X0199364Y0092307D01*
X0200588Y0091800D01*
X0199364Y0091293D01*
X0197874Y0089802D01*
X0197067Y0087854D01*
X0197067Y0085746D01*
X0197874Y0083798D01*
X0199364Y0082307D01*
X0199381Y0082300D01*
X0198430Y0082300D01*
X0197972Y0082177D01*
X0197561Y0081940D01*
X0197226Y0081605D01*
X0196989Y0081195D01*
X0196867Y0080737D01*
X0196867Y0077000D01*
X0201917Y0077000D01*
X0201917Y0076600D01*
X0196867Y0076600D01*
X0196867Y0072863D01*
X0196989Y0072405D01*
X0197226Y0071995D01*
X0197561Y0071660D01*
X0197972Y0071423D01*
X0198430Y0071300D01*
X0201917Y0071300D01*
X0201917Y0016600D01*
X0014667Y0016600D01*
X0014667Y0070819D01*
X0016056Y0070819D01*
X0017218Y0071300D01*
X0018804Y0071300D01*
X0019261Y0071423D01*
X0019672Y0071660D01*
X0020007Y0071995D01*
X0020244Y0072405D01*
X0020367Y0072863D01*
X0020367Y0074449D01*
X0020848Y0075610D01*
X0020848Y0077990D01*
X0020367Y0079151D01*
X0020367Y0080737D01*
X0020244Y0081195D01*
X0020007Y0081605D01*
X0019672Y0081940D01*
X0019261Y0082177D01*
X0018804Y0082300D01*
X0017852Y0082300D01*
X0017869Y0082307D01*
X0019360Y0083798D01*
X0019609Y0084400D01*
X0038873Y0084400D01*
X0047467Y0075806D01*
X0047467Y0065340D01*
X0045667Y0063540D01*
X0045667Y0060060D01*
X0048127Y0057600D01*
X0051606Y0057600D01*
X0053406Y0059400D01*
X0056327Y0059400D01*
X0058127Y0057600D01*
X0061606Y0057600D01*
X0063406Y0059400D01*
X0063873Y0059400D01*
X0078507Y0044765D01*
X0079389Y0044400D01*
X0088727Y0044400D01*
X0089888Y0043239D01*
X0091431Y0042600D01*
X0098302Y0042600D01*
X0099692Y0043176D01*
X0117780Y0020567D01*
X0117832Y0020441D01*
X0118076Y0020197D01*
X0118291Y0019928D01*
X0118411Y0019862D01*
X0118507Y0019765D01*
X0118825Y0019634D01*
X0119127Y0019467D01*
X0119263Y0019452D01*
X0119389Y0019400D01*
X0119734Y0019400D01*
X0120076Y0019362D01*
X0120207Y0019400D01*
X0141327Y0019400D01*
X0143127Y0017600D01*
X0146606Y0017600D01*
X0149067Y0020060D01*
X0149067Y0023540D01*
X0146606Y0026000D01*
X0143127Y0026000D01*
X0141327Y0024200D01*
X0121020Y0024200D01*
X0101954Y0048033D01*
X0101901Y0048159D01*
X0101658Y0048403D01*
X0101443Y0048672D01*
X0101323Y0048738D01*
X0101226Y0048835D01*
X0101158Y0048863D01*
X0101027Y0049179D01*
X0099846Y0050361D01*
X0098302Y0051000D01*
X0091431Y0051000D01*
X0089888Y0050361D01*
X0088727Y0049200D01*
X0080861Y0049200D01*
X0066226Y0063835D01*
X0065344Y0064200D01*
X0063406Y0064200D01*
X0064867Y0061800D02*
X0059867Y0061800D01*
X0049867Y0061800D01*
X0049867Y0076800D01*
X0039867Y0086800D01*
X0014867Y0086800D01*
X0019035Y0090127D02*
X0074086Y0090127D01*
X0073886Y0090610D02*
X0074796Y0088412D01*
X0076479Y0086729D01*
X0077001Y0086513D01*
X0076984Y0086504D01*
X0076284Y0085995D01*
X0075671Y0085383D01*
X0075163Y0084683D01*
X0074770Y0083911D01*
X0074502Y0083088D01*
X0074367Y0082233D01*
X0074367Y0082000D01*
X0079667Y0082000D01*
X0079667Y0081600D01*
X0074367Y0081600D01*
X0074367Y0081367D01*
X0074502Y0080512D01*
X0074770Y0079689D01*
X0075163Y0078917D01*
X0075671Y0078217D01*
X0076284Y0077605D01*
X0076984Y0077096D01*
X0077755Y0076703D01*
X0077811Y0076685D01*
X0076864Y0076293D01*
X0075374Y0074802D01*
X0074567Y0072854D01*
X0074567Y0070746D01*
X0075374Y0068798D01*
X0076864Y0067307D01*
X0078812Y0066500D01*
X0080921Y0066500D01*
X0082869Y0067307D01*
X0084360Y0068798D01*
X0085167Y0070746D01*
X0085167Y0072854D01*
X0084917Y0073456D01*
X0085861Y0074400D01*
X0088727Y0074400D01*
X0089888Y0073239D01*
X0091431Y0072600D01*
X0098302Y0072600D01*
X0099846Y0073239D01*
X0101027Y0074421D01*
X0101667Y0075965D01*
X0101667Y0077635D01*
X0101027Y0079179D01*
X0099846Y0080361D01*
X0098302Y0081000D01*
X0091431Y0081000D01*
X0089888Y0080361D01*
X0088727Y0079200D01*
X0084715Y0079200D01*
X0084964Y0079689D01*
X0085231Y0080512D01*
X0085367Y0081367D01*
X0085367Y0081600D01*
X0080067Y0081600D01*
X0080067Y0082000D01*
X0085367Y0082000D01*
X0085367Y0082233D01*
X0085231Y0083088D01*
X0084964Y0083911D01*
X0084715Y0084400D01*
X0088727Y0084400D01*
X0089888Y0083239D01*
X0091431Y0082600D01*
X0098302Y0082600D01*
X0099846Y0083239D01*
X0101027Y0084421D01*
X0101667Y0085965D01*
X0101667Y0087635D01*
X0101027Y0089179D01*
X0099846Y0090361D01*
X0098302Y0091000D01*
X0091431Y0091000D01*
X0089888Y0090361D01*
X0088727Y0089200D01*
X0085861Y0089200D01*
X0085438Y0089622D01*
X0085848Y0090610D01*
X0085848Y0092990D01*
X0084937Y0095188D01*
X0083255Y0096871D01*
X0081056Y0097781D01*
X0078677Y0097781D01*
X0076479Y0096871D01*
X0074796Y0095188D01*
X0073886Y0092990D01*
X0073886Y0090610D01*
X0073886Y0091726D02*
X0016825Y0091726D01*
X0018886Y0093324D02*
X0038900Y0093324D01*
X0040833Y0093324D02*
X0074024Y0093324D01*
X0074686Y0094923D02*
X0042965Y0094923D01*
X0043448Y0096521D02*
X0076129Y0096521D01*
X0079867Y0091800D02*
X0084867Y0086800D01*
X0094867Y0086800D01*
X0089654Y0090127D02*
X0085648Y0090127D01*
X0085848Y0091726D02*
X0102467Y0091726D01*
X0102467Y0093324D02*
X0100168Y0093324D01*
X0100333Y0093444D02*
X0100823Y0093934D01*
X0101230Y0094494D01*
X0101544Y0095111D01*
X0101608Y0095308D01*
X0101831Y0094771D01*
X0102467Y0094136D01*
X0102467Y0056323D01*
X0102832Y0055441D01*
X0103507Y0054765D01*
X0118900Y0039373D01*
X0118706Y0039179D01*
X0118067Y0037635D01*
X0118067Y0035965D01*
X0118706Y0034421D01*
X0119888Y0033239D01*
X0121431Y0032600D01*
X0128302Y0032600D01*
X0129846Y0033239D01*
X0131027Y0034421D01*
X0131667Y0035965D01*
X0131667Y0037635D01*
X0131027Y0039179D01*
X0129846Y0040361D01*
X0128302Y0041000D01*
X0124061Y0041000D01*
X0122461Y0042600D01*
X0128302Y0042600D01*
X0129846Y0043239D01*
X0131027Y0044421D01*
X0131667Y0045965D01*
X0131667Y0047635D01*
X0131027Y0049179D01*
X0129846Y0050361D01*
X0128302Y0051000D01*
X0121431Y0051000D01*
X0119888Y0050361D01*
X0118706Y0049179D01*
X0118067Y0047635D01*
X0118067Y0046994D01*
X0107267Y0057794D01*
X0107267Y0094136D01*
X0107903Y0094771D01*
X0108448Y0096088D01*
X0108448Y0097512D01*
X0107903Y0098829D01*
X0106895Y0099836D01*
X0105579Y0100381D01*
X0104154Y0100381D01*
X0102838Y0099836D01*
X0101831Y0098829D01*
X0101608Y0098292D01*
X0101544Y0098489D01*
X0101230Y0099106D01*
X0100823Y0099666D01*
X0100333Y0100156D01*
X0099773Y0100563D01*
X0099156Y0100878D01*
X0098497Y0101092D01*
X0097813Y0101200D01*
X0094867Y0101200D01*
X0094867Y0096800D01*
X0094867Y0092400D01*
X0097813Y0092400D01*
X0098497Y0092508D01*
X0099156Y0092722D01*
X0099773Y0093037D01*
X0100333Y0093444D01*
X0101448Y0094923D02*
X0101768Y0094923D01*
X0104867Y0096800D02*
X0104867Y0056800D01*
X0124867Y0036800D01*
X0122889Y0042172D02*
X0148886Y0042172D01*
X0148886Y0042990D02*
X0148886Y0040610D01*
X0149796Y0038412D01*
X0151479Y0036729D01*
X0152467Y0036320D01*
X0152467Y0025340D01*
X0150667Y0023540D01*
X0150667Y0020060D01*
X0153127Y0017600D01*
X0156606Y0017600D01*
X0159067Y0020060D01*
X0159067Y0023540D01*
X0157267Y0025340D01*
X0157267Y0036320D01*
X0158255Y0036729D01*
X0159937Y0038412D01*
X0160848Y0040610D01*
X0160848Y0042990D01*
X0159937Y0045188D01*
X0158255Y0046871D01*
X0156056Y0047781D01*
X0153677Y0047781D01*
X0151479Y0046871D01*
X0149796Y0045188D01*
X0148886Y0042990D01*
X0149209Y0043770D02*
X0130377Y0043770D01*
X0131420Y0045369D02*
X0149977Y0045369D01*
X0151712Y0046967D02*
X0131667Y0046967D01*
X0131281Y0048566D02*
X0191878Y0048566D01*
X0193044Y0047400D02*
X0190467Y0049977D01*
X0190467Y0051800D01*
X0194867Y0051800D01*
X0199267Y0051800D01*
X0199267Y0053623D01*
X0196689Y0056200D01*
X0194867Y0056200D01*
X0194867Y0051800D01*
X0194867Y0051800D01*
X0199267Y0051800D01*
X0199267Y0049977D01*
X0196689Y0047400D01*
X0194867Y0047400D01*
X0194867Y0051800D01*
X0194867Y0051800D01*
X0194867Y0051800D01*
X0194867Y0056200D01*
X0193044Y0056200D01*
X0190467Y0053623D01*
X0190467Y0051800D01*
X0194867Y0051800D01*
X0194867Y0047400D01*
X0193044Y0047400D01*
X0194867Y0048566D02*
X0194867Y0048566D01*
X0194867Y0050164D02*
X0194867Y0050164D01*
X0194867Y0051763D02*
X0194867Y0051763D01*
X0194867Y0051800D02*
X0194867Y0051800D01*
X0194867Y0053361D02*
X0194867Y0053361D01*
X0194867Y0054960D02*
X0194867Y0054960D01*
X0191804Y0054960D02*
X0131250Y0054960D01*
X0131027Y0054421D02*
X0131667Y0055965D01*
X0131667Y0057635D01*
X0131027Y0059179D01*
X0129846Y0060361D01*
X0128302Y0061000D01*
X0121431Y0061000D01*
X0119888Y0060361D01*
X0118706Y0059179D01*
X0118067Y0057635D01*
X0118067Y0055965D01*
X0118706Y0054421D01*
X0119888Y0053239D01*
X0121431Y0052600D01*
X0128302Y0052600D01*
X0129846Y0053239D01*
X0131027Y0054421D01*
X0129968Y0053361D02*
X0190467Y0053361D01*
X0190467Y0051763D02*
X0113298Y0051763D01*
X0111699Y0053361D02*
X0119766Y0053361D01*
X0118483Y0054960D02*
X0110101Y0054960D01*
X0108502Y0056558D02*
X0118067Y0056558D01*
X0118283Y0058157D02*
X0107267Y0058157D01*
X0107267Y0059755D02*
X0119282Y0059755D01*
X0119888Y0063239D02*
X0121431Y0062600D01*
X0128302Y0062600D01*
X0129846Y0063239D01*
X0131027Y0064421D01*
X0131667Y0065965D01*
X0131667Y0067635D01*
X0131027Y0069179D01*
X0129846Y0070361D01*
X0128302Y0071000D01*
X0121431Y0071000D01*
X0119888Y0070361D01*
X0118706Y0069179D01*
X0118067Y0067635D01*
X0118067Y0065965D01*
X0118706Y0064421D01*
X0119888Y0063239D01*
X0120581Y0062952D02*
X0107267Y0062952D01*
X0107267Y0061354D02*
X0201917Y0061354D01*
X0201917Y0062952D02*
X0129153Y0062952D01*
X0131081Y0064551D02*
X0201917Y0064551D01*
X0201917Y0066149D02*
X0131667Y0066149D01*
X0131620Y0067748D02*
X0152696Y0067748D01*
X0153044Y0067400D02*
X0150467Y0069977D01*
X0150467Y0071800D01*
X0154867Y0071800D01*
X0159267Y0071800D01*
X0159267Y0073623D01*
X0156689Y0076200D01*
X0154867Y0076200D01*
X0154867Y0071800D01*
X0154867Y0071800D01*
X0159267Y0071800D01*
X0159267Y0069977D01*
X0156689Y0067400D01*
X0154867Y0067400D01*
X0154867Y0071800D01*
X0154867Y0071800D01*
X0154867Y0071800D01*
X0154867Y0076200D01*
X0153044Y0076200D01*
X0150467Y0073623D01*
X0150467Y0071800D01*
X0154867Y0071800D01*
X0154867Y0067400D01*
X0153044Y0067400D01*
X0154867Y0067748D02*
X0154867Y0067748D01*
X0154867Y0069346D02*
X0154867Y0069346D01*
X0154867Y0070945D02*
X0154867Y0070945D01*
X0154867Y0071800D02*
X0154867Y0071800D01*
X0154867Y0072543D02*
X0154867Y0072543D01*
X0154867Y0074142D02*
X0154867Y0074142D01*
X0154867Y0075740D02*
X0154867Y0075740D01*
X0157149Y0075740D02*
X0196867Y0075740D01*
X0196867Y0074142D02*
X0158747Y0074142D01*
X0159267Y0072543D02*
X0196952Y0072543D01*
X0196867Y0077339D02*
X0131836Y0077339D01*
X0131867Y0077146D02*
X0131758Y0077830D01*
X0131544Y0078489D01*
X0131230Y0079106D01*
X0130823Y0079666D01*
X0130333Y0080156D01*
X0129773Y0080563D01*
X0129156Y0080878D01*
X0128497Y0081092D01*
X0127813Y0081200D01*
X0124867Y0081200D01*
X0124867Y0076800D01*
X0131867Y0076800D01*
X0131867Y0077146D01*
X0131867Y0076800D02*
X0124867Y0076800D01*
X0124867Y0076800D01*
X0124867Y0072400D01*
X0127813Y0072400D01*
X0128497Y0072508D01*
X0129156Y0072722D01*
X0129773Y0073037D01*
X0130333Y0073444D01*
X0130823Y0073934D01*
X0131230Y0074494D01*
X0131544Y0075111D01*
X0131758Y0075770D01*
X0131867Y0076454D01*
X0131867Y0076800D01*
X0131749Y0075740D02*
X0152585Y0075740D01*
X0150986Y0074142D02*
X0130974Y0074142D01*
X0128605Y0072543D02*
X0150467Y0072543D01*
X0150467Y0070945D02*
X0128435Y0070945D01*
X0130860Y0069346D02*
X0151098Y0069346D01*
X0157037Y0067748D02*
X0201917Y0067748D01*
X0201917Y0069346D02*
X0158636Y0069346D01*
X0159267Y0070945D02*
X0201917Y0070945D01*
X0196867Y0078937D02*
X0131316Y0078937D01*
X0129810Y0080536D02*
X0196867Y0080536D01*
X0197898Y0082134D02*
X0152202Y0082134D01*
X0151917Y0081850D02*
X0154817Y0084750D01*
X0154817Y0086800D01*
X0154817Y0088850D01*
X0151917Y0091750D01*
X0149867Y0091750D01*
X0149867Y0086800D01*
X0154817Y0086800D01*
X0149867Y0086800D01*
X0149867Y0086800D01*
X0149867Y0081850D01*
X0151917Y0081850D01*
X0149867Y0081850D02*
X0149867Y0086800D01*
X0149867Y0086800D01*
X0149867Y0086800D01*
X0149867Y0091750D01*
X0147816Y0091750D01*
X0144917Y0088850D01*
X0144917Y0086800D01*
X0144917Y0084750D01*
X0147816Y0081850D01*
X0149867Y0081850D01*
X0149867Y0082134D02*
X0149867Y0082134D01*
X0149867Y0083733D02*
X0149867Y0083733D01*
X0149867Y0085332D02*
X0149867Y0085332D01*
X0149867Y0086800D02*
X0144917Y0086800D01*
X0149867Y0086800D01*
X0149867Y0086800D01*
X0149867Y0086930D02*
X0149867Y0086930D01*
X0149867Y0088529D02*
X0149867Y0088529D01*
X0149867Y0090127D02*
X0149867Y0090127D01*
X0149867Y0091726D02*
X0149867Y0091726D01*
X0151941Y0091726D02*
X0200408Y0091726D01*
X0198347Y0093324D02*
X0129930Y0093324D01*
X0131235Y0094923D02*
X0197408Y0094923D01*
X0197067Y0096521D02*
X0131667Y0096521D01*
X0131466Y0098120D02*
X0197177Y0098120D01*
X0197839Y0099718D02*
X0130488Y0099718D01*
X0129063Y0102915D02*
X0198756Y0102915D01*
X0199421Y0101317D02*
X0113744Y0101317D01*
X0112146Y0102915D02*
X0120670Y0102915D01*
X0119245Y0099718D02*
X0115343Y0099718D01*
X0114867Y0096800D02*
X0099867Y0111800D01*
X0069867Y0111800D01*
X0054867Y0126800D01*
X0054867Y0181800D01*
X0049867Y0186800D01*
X0044945Y0186800D01*
X0048653Y0182841D02*
X0050432Y0182841D01*
X0049257Y0181242D02*
X0052030Y0181242D01*
X0052467Y0179644D02*
X0049239Y0179644D01*
X0049212Y0179476D02*
X0049320Y0180156D01*
X0049320Y0180501D01*
X0044946Y0180501D01*
X0044946Y0180501D01*
X0044945Y0180501D02*
X0044945Y0176126D01*
X0045290Y0176126D01*
X0045970Y0176234D01*
X0046625Y0176446D01*
X0047238Y0176759D01*
X0047795Y0177164D01*
X0048282Y0177651D01*
X0048687Y0178208D01*
X0049000Y0178821D01*
X0049212Y0179476D01*
X0048569Y0178045D02*
X0052467Y0178045D01*
X0052467Y0176447D02*
X0046625Y0176447D01*
X0044945Y0176447D02*
X0044945Y0176447D01*
X0044945Y0178045D02*
X0044945Y0178045D01*
X0044945Y0179644D02*
X0044945Y0179644D01*
X0043266Y0176447D02*
X0042621Y0176447D01*
X0042621Y0174848D02*
X0052467Y0174848D01*
X0052467Y0173250D02*
X0042621Y0173250D01*
X0042621Y0171651D02*
X0052467Y0171651D01*
X0052467Y0170053D02*
X0042621Y0170053D01*
X0042621Y0168454D02*
X0052467Y0168454D01*
X0052467Y0166856D02*
X0042621Y0166856D01*
X0042621Y0165257D02*
X0052467Y0165257D01*
X0052467Y0163659D02*
X0042621Y0163659D01*
X0042621Y0162060D02*
X0052467Y0162060D01*
X0052467Y0160462D02*
X0042621Y0160462D01*
X0042621Y0158863D02*
X0052467Y0158863D01*
X0052467Y0157265D02*
X0042621Y0157265D01*
X0042621Y0155666D02*
X0052467Y0155666D01*
X0052467Y0154068D02*
X0042621Y0154068D01*
X0042621Y0152469D02*
X0052467Y0152469D01*
X0052467Y0150870D02*
X0042621Y0150870D01*
X0042621Y0149272D02*
X0052467Y0149272D01*
X0052467Y0147673D02*
X0042621Y0147673D01*
X0042621Y0146075D02*
X0052467Y0146075D01*
X0052467Y0144476D02*
X0042621Y0144476D01*
X0042621Y0142878D02*
X0052467Y0142878D01*
X0052467Y0141279D02*
X0042621Y0141279D01*
X0042621Y0139681D02*
X0052467Y0139681D01*
X0052467Y0138082D02*
X0042621Y0138082D01*
X0042621Y0136484D02*
X0052467Y0136484D01*
X0052467Y0134885D02*
X0042621Y0134885D01*
X0042621Y0133287D02*
X0052467Y0133287D01*
X0052467Y0131688D02*
X0042621Y0131688D01*
X0042621Y0130090D02*
X0052467Y0130090D01*
X0052467Y0128491D02*
X0042621Y0128491D01*
X0042621Y0126893D02*
X0052467Y0126893D01*
X0052978Y0125294D02*
X0042621Y0125294D01*
X0042621Y0123696D02*
X0054577Y0123696D01*
X0056175Y0122097D02*
X0042621Y0122097D01*
X0042621Y0120499D02*
X0057774Y0120499D01*
X0059372Y0118900D02*
X0042621Y0118900D01*
X0042621Y0117302D02*
X0060971Y0117302D01*
X0062569Y0115703D02*
X0042621Y0115703D01*
X0042621Y0114105D02*
X0064168Y0114105D01*
X0065766Y0112506D02*
X0042621Y0112506D01*
X0042621Y0110908D02*
X0067365Y0110908D01*
X0069867Y0121800D02*
X0099867Y0121800D01*
X0114867Y0106800D01*
X0124867Y0106800D01*
X0128525Y0110908D02*
X0198979Y0110908D01*
X0199165Y0112506D02*
X0112555Y0112506D01*
X0114153Y0110908D02*
X0121208Y0110908D01*
X0121431Y0112600D02*
X0119888Y0113239D01*
X0118706Y0114421D01*
X0118067Y0115965D01*
X0118067Y0117635D01*
X0118706Y0119179D01*
X0119888Y0120361D01*
X0121431Y0121000D01*
X0128302Y0121000D01*
X0129846Y0120361D01*
X0131006Y0119200D01*
X0153873Y0119200D01*
X0167467Y0132794D01*
X0167467Y0148260D01*
X0165667Y0150060D01*
X0165667Y0153540D01*
X0168127Y0156000D01*
X0171606Y0156000D01*
X0174067Y0153540D01*
X0174067Y0150060D01*
X0172267Y0148260D01*
X0172267Y0131323D01*
X0171901Y0130441D01*
X0171226Y0129765D01*
X0156226Y0114765D01*
X0155344Y0114400D01*
X0131006Y0114400D01*
X0129846Y0113239D01*
X0128302Y0112600D01*
X0121431Y0112600D01*
X0119022Y0114105D02*
X0110956Y0114105D01*
X0109358Y0115703D02*
X0118175Y0115703D01*
X0118067Y0117302D02*
X0107759Y0117302D01*
X0106160Y0118900D02*
X0118591Y0118900D01*
X0120221Y0120499D02*
X0104562Y0120499D01*
X0102963Y0122097D02*
X0156770Y0122097D01*
X0155171Y0120499D02*
X0129512Y0120499D01*
X0130302Y0123696D02*
X0158368Y0123696D01*
X0159967Y0125294D02*
X0131389Y0125294D01*
X0131667Y0126893D02*
X0161565Y0126893D01*
X0163164Y0128491D02*
X0131312Y0128491D01*
X0130806Y0134200D02*
X0131027Y0134421D01*
X0131667Y0135965D01*
X0131667Y0137635D01*
X0131027Y0139179D01*
X0129846Y0140361D01*
X0128302Y0141000D01*
X0121431Y0141000D01*
X0119888Y0140361D01*
X0118706Y0139179D01*
X0118067Y0137635D01*
X0118067Y0135965D01*
X0118706Y0134421D01*
X0118927Y0134200D01*
X0104389Y0134200D01*
X0103507Y0133835D01*
X0102832Y0133159D01*
X0099939Y0130267D01*
X0099846Y0130361D01*
X0098302Y0131000D01*
X0091431Y0131000D01*
X0089888Y0130361D01*
X0088706Y0129179D01*
X0088067Y0127635D01*
X0088067Y0125965D01*
X0088706Y0124421D01*
X0088927Y0124200D01*
X0070861Y0124200D01*
X0062267Y0132794D01*
X0062267Y0187277D01*
X0061901Y0188159D01*
X0061226Y0188835D01*
X0053383Y0196678D01*
X0053812Y0196500D01*
X0055921Y0196500D01*
X0057869Y0197307D01*
X0059360Y0198798D01*
X0059867Y0200022D01*
X0060374Y0198798D01*
X0061864Y0197307D01*
X0063812Y0196500D01*
X0065921Y0196500D01*
X0067869Y0197307D01*
X0069360Y0198798D01*
X0069867Y0200022D01*
X0070374Y0198798D01*
X0071864Y0197307D01*
X0073812Y0196500D01*
X0075921Y0196500D01*
X0077869Y0197307D01*
X0079360Y0198798D01*
X0079867Y0200022D01*
X0080374Y0198798D01*
X0081864Y0197307D01*
X0082467Y0197057D01*
X0082467Y0192794D01*
X0077389Y0187717D01*
X0076606Y0188500D01*
X0073127Y0188500D01*
X0070667Y0186040D01*
X0070667Y0182560D01*
X0073127Y0180100D01*
X0076606Y0180100D01*
X0079067Y0182560D01*
X0079067Y0182606D01*
X0084867Y0188406D01*
X0093507Y0179765D01*
X0094389Y0179400D01*
X0101327Y0179400D01*
X0101527Y0179200D01*
X0083406Y0179200D01*
X0081606Y0181000D01*
X0078127Y0181000D01*
X0075667Y0178540D01*
X0075667Y0175060D01*
X0077467Y0173260D01*
X0077467Y0155947D01*
X0077176Y0155827D01*
X0075840Y0154491D01*
X0075117Y0152745D01*
X0075117Y0150855D01*
X0075840Y0149109D01*
X0077176Y0147773D01*
X0077467Y0147653D01*
X0077467Y0135340D01*
X0075667Y0133540D01*
X0075667Y0130060D01*
X0078127Y0127600D01*
X0081606Y0127600D01*
X0084067Y0130060D01*
X0084067Y0133540D01*
X0082267Y0135340D01*
X0082267Y0147653D01*
X0082557Y0147773D01*
X0083894Y0149109D01*
X0084617Y0150855D01*
X0084617Y0152745D01*
X0083894Y0154491D01*
X0082557Y0155827D01*
X0082267Y0155947D01*
X0082267Y0173260D01*
X0083406Y0174400D01*
X0123873Y0174400D01*
X0127273Y0171000D01*
X0121431Y0171000D01*
X0119888Y0170361D01*
X0118706Y0169179D01*
X0118067Y0167635D01*
X0118067Y0165965D01*
X0118706Y0164421D01*
X0119888Y0163239D01*
X0121431Y0162600D01*
X0128302Y0162600D01*
X0129846Y0163239D01*
X0131006Y0164400D01*
X0131327Y0164400D01*
X0133127Y0162600D01*
X0136606Y0162600D01*
X0139067Y0165060D01*
X0139067Y0168540D01*
X0136606Y0171000D01*
X0134061Y0171000D01*
X0126226Y0178835D01*
X0125344Y0179200D01*
X0118489Y0179200D01*
X0119267Y0179977D01*
X0119267Y0181800D01*
X0119267Y0183623D01*
X0116689Y0186200D01*
X0114867Y0186200D01*
X0114867Y0181800D01*
X0119267Y0181800D01*
X0114867Y0181800D01*
X0114867Y0181800D01*
X0114867Y0181800D01*
X0114867Y0186200D01*
X0113044Y0186200D01*
X0110467Y0183623D01*
X0110467Y0181800D01*
X0110467Y0179977D01*
X0111244Y0179200D01*
X0108206Y0179200D01*
X0109067Y0180060D01*
X0109067Y0183540D01*
X0106606Y0186000D01*
X0103127Y0186000D01*
X0101327Y0184200D01*
X0095861Y0184200D01*
X0087267Y0192794D01*
X0087267Y0197057D01*
X0087869Y0197307D01*
X0089360Y0198798D01*
X0089498Y0199132D01*
X0089796Y0198412D01*
X0091479Y0196729D01*
X0093677Y0195819D01*
X0096056Y0195819D01*
X0098255Y0196729D01*
X0099937Y0198412D01*
X0100848Y0200610D01*
X0100848Y0202990D01*
X0100491Y0203850D01*
X0142479Y0203850D01*
X0142067Y0202854D01*
X0142067Y0200746D01*
X0142874Y0198798D01*
X0144364Y0197307D01*
X0146312Y0196500D01*
X0148421Y0196500D01*
X0150369Y0197307D01*
X0151860Y0198798D01*
X0152367Y0200022D01*
X0152874Y0198798D01*
X0154364Y0197307D01*
X0154967Y0197057D01*
X0154967Y0140294D01*
X0148873Y0134200D01*
X0130806Y0134200D01*
X0131220Y0134885D02*
X0149558Y0134885D01*
X0151156Y0136484D02*
X0131667Y0136484D01*
X0131482Y0138082D02*
X0152755Y0138082D01*
X0154353Y0139681D02*
X0130525Y0139681D01*
X0128973Y0142878D02*
X0154967Y0142878D01*
X0154967Y0144476D02*
X0131050Y0144476D01*
X0131027Y0144421D02*
X0131667Y0145965D01*
X0131667Y0147635D01*
X0131027Y0149179D01*
X0129846Y0150361D01*
X0128302Y0151000D01*
X0121431Y0151000D01*
X0119888Y0150361D01*
X0118706Y0149179D01*
X0118067Y0147635D01*
X0118067Y0145965D01*
X0118706Y0144421D01*
X0119888Y0143239D01*
X0121431Y0142600D01*
X0128302Y0142600D01*
X0129846Y0143239D01*
X0131027Y0144421D01*
X0131667Y0146075D02*
X0154967Y0146075D01*
X0154967Y0147673D02*
X0131651Y0147673D01*
X0130934Y0149272D02*
X0154967Y0149272D01*
X0154967Y0150870D02*
X0128615Y0150870D01*
X0128249Y0152469D02*
X0132975Y0152469D01*
X0133044Y0152400D02*
X0134867Y0152400D01*
X0136689Y0152400D01*
X0139267Y0154977D01*
X0139267Y0156800D01*
X0139267Y0158623D01*
X0136689Y0161200D01*
X0134867Y0161200D01*
X0134867Y0156800D01*
X0139267Y0156800D01*
X0134867Y0156800D01*
X0134867Y0156800D01*
X0134867Y0156800D01*
X0134867Y0152400D01*
X0134867Y0156800D01*
X0134867Y0156800D01*
X0134867Y0161200D01*
X0133044Y0161200D01*
X0131112Y0159268D01*
X0130823Y0159666D01*
X0130333Y0160156D01*
X0129773Y0160563D01*
X0129156Y0160878D01*
X0128497Y0161092D01*
X0127813Y0161200D01*
X0124867Y0161200D01*
X0124867Y0156800D01*
X0130467Y0156800D01*
X0134867Y0156800D01*
X0124867Y0156800D01*
X0124867Y0156800D01*
X0124867Y0156800D01*
X0124867Y0152400D01*
X0127813Y0152400D01*
X0128497Y0152508D01*
X0129156Y0152722D01*
X0129773Y0153037D01*
X0130333Y0153444D01*
X0130823Y0153934D01*
X0131112Y0154332D01*
X0133044Y0152400D01*
X0134867Y0152469D02*
X0134867Y0152469D01*
X0134867Y0154068D02*
X0134867Y0154068D01*
X0134867Y0155666D02*
X0134867Y0155666D01*
X0134867Y0156800D02*
X0134867Y0156800D01*
X0134867Y0157265D02*
X0134867Y0157265D01*
X0134867Y0158863D02*
X0134867Y0158863D01*
X0134867Y0160462D02*
X0134867Y0160462D01*
X0137428Y0160462D02*
X0154967Y0160462D01*
X0154967Y0162060D02*
X0082267Y0162060D01*
X0082267Y0160462D02*
X0090131Y0160462D01*
X0089888Y0160361D02*
X0088706Y0159179D01*
X0088067Y0157635D01*
X0088067Y0155965D01*
X0088706Y0154421D01*
X0089888Y0153239D01*
X0091431Y0152600D01*
X0098302Y0152600D01*
X0099846Y0153239D01*
X0101027Y0154421D01*
X0101667Y0155965D01*
X0101667Y0157635D01*
X0101027Y0159179D01*
X0099846Y0160361D01*
X0098302Y0161000D01*
X0091431Y0161000D01*
X0089888Y0160361D01*
X0088575Y0158863D02*
X0082267Y0158863D01*
X0082267Y0157265D02*
X0088067Y0157265D01*
X0088190Y0155666D02*
X0082718Y0155666D01*
X0084069Y0154068D02*
X0089059Y0154068D01*
X0089888Y0150361D02*
X0088706Y0149179D01*
X0088067Y0147635D01*
X0088067Y0145965D01*
X0088706Y0144421D01*
X0089888Y0143239D01*
X0091431Y0142600D01*
X0098302Y0142600D01*
X0099846Y0143239D01*
X0101027Y0144421D01*
X0101667Y0145965D01*
X0101667Y0147635D01*
X0101027Y0149179D01*
X0099846Y0150361D01*
X0098302Y0151000D01*
X0091431Y0151000D01*
X0089888Y0150361D01*
X0091119Y0150870D02*
X0084617Y0150870D01*
X0084617Y0152469D02*
X0121485Y0152469D01*
X0121236Y0152508D02*
X0121920Y0152400D01*
X0124867Y0152400D01*
X0124867Y0156800D01*
X0124867Y0156800D01*
X0124867Y0161200D01*
X0121920Y0161200D01*
X0121236Y0161092D01*
X0120578Y0160878D01*
X0119961Y0160563D01*
X0119400Y0160156D01*
X0118911Y0159666D01*
X0118503Y0159106D01*
X0118189Y0158489D01*
X0117975Y0157830D01*
X0117867Y0157146D01*
X0117867Y0156800D01*
X0117867Y0156454D01*
X0117975Y0155770D01*
X0118189Y0155111D01*
X0118503Y0154494D01*
X0118911Y0153934D01*
X0119400Y0153444D01*
X0119961Y0153037D01*
X0120578Y0152722D01*
X0121236Y0152508D01*
X0121119Y0150870D02*
X0098615Y0150870D01*
X0100934Y0149272D02*
X0118799Y0149272D01*
X0118082Y0147673D02*
X0101651Y0147673D01*
X0101667Y0146075D02*
X0118067Y0146075D01*
X0118683Y0144476D02*
X0112255Y0144476D01*
X0111895Y0144836D02*
X0110579Y0145381D01*
X0109154Y0145381D01*
X0107838Y0144836D01*
X0106831Y0143829D01*
X0106286Y0142512D01*
X0106286Y0141613D01*
X0103873Y0139200D01*
X0101006Y0139200D01*
X0099846Y0140361D01*
X0098302Y0141000D01*
X0091431Y0141000D01*
X0089888Y0140361D01*
X0088706Y0139179D01*
X0088067Y0137635D01*
X0088067Y0135965D01*
X0088706Y0134421D01*
X0089888Y0133239D01*
X0091431Y0132600D01*
X0098302Y0132600D01*
X0099846Y0133239D01*
X0101006Y0134400D01*
X0105344Y0134400D01*
X0106226Y0134765D01*
X0106901Y0135441D01*
X0109680Y0138219D01*
X0110579Y0138219D01*
X0111895Y0138764D01*
X0112903Y0139771D01*
X0113448Y0141088D01*
X0113448Y0142512D01*
X0112903Y0143829D01*
X0111895Y0144836D01*
X0113296Y0142878D02*
X0120760Y0142878D01*
X0119208Y0139681D02*
X0112812Y0139681D01*
X0113448Y0141279D02*
X0154967Y0141279D01*
X0157367Y0139300D02*
X0149867Y0131800D01*
X0104867Y0131800D01*
X0099867Y0126800D01*
X0094867Y0126800D01*
X0089617Y0130090D02*
X0084067Y0130090D01*
X0084067Y0131688D02*
X0101361Y0131688D01*
X0102832Y0133159D02*
X0102832Y0133159D01*
X0102959Y0133287D02*
X0099893Y0133287D01*
X0104867Y0136800D02*
X0094867Y0136800D01*
X0089840Y0133287D02*
X0084067Y0133287D01*
X0082721Y0134885D02*
X0088514Y0134885D01*
X0088067Y0136484D02*
X0082267Y0136484D01*
X0082267Y0138082D02*
X0088252Y0138082D01*
X0089208Y0139681D02*
X0082267Y0139681D01*
X0082267Y0141279D02*
X0105952Y0141279D01*
X0106437Y0142878D02*
X0098973Y0142878D01*
X0101050Y0144476D02*
X0107479Y0144476D01*
X0109867Y0141800D02*
X0104867Y0136800D01*
X0106346Y0134885D02*
X0118514Y0134885D01*
X0118067Y0136484D02*
X0107945Y0136484D01*
X0109543Y0138082D02*
X0118252Y0138082D01*
X0118421Y0128491D02*
X0104952Y0128491D01*
X0103354Y0126893D02*
X0118067Y0126893D01*
X0118344Y0125294D02*
X0101755Y0125294D01*
X0101365Y0123696D02*
X0119431Y0123696D01*
X0124867Y0116800D02*
X0154867Y0116800D01*
X0169867Y0131800D01*
X0169867Y0151800D01*
X0166455Y0149272D02*
X0159767Y0149272D01*
X0159767Y0150870D02*
X0165667Y0150870D01*
X0165667Y0152469D02*
X0159767Y0152469D01*
X0159767Y0154068D02*
X0166194Y0154068D01*
X0167793Y0155666D02*
X0159767Y0155666D01*
X0159767Y0157265D02*
X0201917Y0157265D01*
X0201917Y0158863D02*
X0159767Y0158863D01*
X0159767Y0160462D02*
X0201917Y0160462D01*
X0201917Y0155666D02*
X0171940Y0155666D01*
X0173539Y0154068D02*
X0201917Y0154068D01*
X0201917Y0152469D02*
X0174067Y0152469D01*
X0174067Y0150870D02*
X0198942Y0150870D01*
X0197654Y0149272D02*
X0173278Y0149272D01*
X0172267Y0147673D02*
X0197067Y0147673D01*
X0197067Y0146075D02*
X0172267Y0146075D01*
X0172267Y0144476D02*
X0197592Y0144476D01*
X0198793Y0142878D02*
X0172267Y0142878D01*
X0172267Y0141279D02*
X0199351Y0141279D01*
X0197823Y0139681D02*
X0172267Y0139681D01*
X0172267Y0138082D02*
X0197161Y0138082D01*
X0197067Y0136484D02*
X0172267Y0136484D01*
X0172267Y0134885D02*
X0197423Y0134885D01*
X0198384Y0133287D02*
X0172267Y0133287D01*
X0172267Y0131688D02*
X0200319Y0131688D01*
X0198161Y0130090D02*
X0171551Y0130090D01*
X0169952Y0128491D02*
X0197331Y0128491D01*
X0197067Y0126893D02*
X0168354Y0126893D01*
X0166755Y0125294D02*
X0197254Y0125294D01*
X0197976Y0123696D02*
X0165157Y0123696D01*
X0163558Y0122097D02*
X0199870Y0122097D01*
X0198570Y0120499D02*
X0161960Y0120499D01*
X0160361Y0118900D02*
X0197500Y0118900D01*
X0197067Y0117302D02*
X0158763Y0117302D01*
X0157164Y0115703D02*
X0197084Y0115703D01*
X0197746Y0114105D02*
X0130711Y0114105D01*
X0130897Y0109309D02*
X0197669Y0109309D01*
X0197067Y0107711D02*
X0131635Y0107711D01*
X0131667Y0106112D02*
X0197067Y0106112D01*
X0197577Y0104514D02*
X0131066Y0104514D01*
X0124867Y0096800D02*
X0114867Y0096800D01*
X0113350Y0094923D02*
X0107965Y0094923D01*
X0108448Y0096521D02*
X0111751Y0096521D01*
X0110153Y0098120D02*
X0108196Y0098120D01*
X0108554Y0099718D02*
X0107013Y0099718D01*
X0106956Y0101317D02*
X0042621Y0101317D01*
X0042621Y0102915D02*
X0090670Y0102915D01*
X0091236Y0101092D02*
X0090578Y0100878D01*
X0089961Y0100563D01*
X0089400Y0100156D01*
X0088911Y0099666D01*
X0088503Y0099106D01*
X0088189Y0098489D01*
X0087975Y0097830D01*
X0087867Y0097146D01*
X0087867Y0096800D01*
X0087867Y0096454D01*
X0087975Y0095770D01*
X0088189Y0095111D01*
X0088503Y0094494D01*
X0088911Y0093934D01*
X0089400Y0093444D01*
X0089961Y0093037D01*
X0090578Y0092722D01*
X0091236Y0092508D01*
X0091920Y0092400D01*
X0094867Y0092400D01*
X0094867Y0096800D01*
X0094867Y0096800D01*
X0094867Y0096800D01*
X0094867Y0101200D01*
X0091920Y0101200D01*
X0091236Y0101092D01*
X0088962Y0099718D02*
X0042621Y0099718D01*
X0043196Y0098120D02*
X0088069Y0098120D01*
X0087867Y0096800D02*
X0094867Y0096800D01*
X0087867Y0096800D01*
X0087867Y0096521D02*
X0083604Y0096521D01*
X0085047Y0094923D02*
X0088285Y0094923D01*
X0089565Y0093324D02*
X0085709Y0093324D01*
X0094867Y0093324D02*
X0094867Y0093324D01*
X0094867Y0094923D02*
X0094867Y0094923D01*
X0094867Y0096521D02*
X0094867Y0096521D01*
X0094867Y0096800D02*
X0094867Y0096800D01*
X0094867Y0098120D02*
X0094867Y0098120D01*
X0094867Y0099718D02*
X0094867Y0099718D01*
X0099063Y0102915D02*
X0105357Y0102915D01*
X0103759Y0104514D02*
X0101066Y0104514D01*
X0101667Y0106112D02*
X0102160Y0106112D01*
X0105752Y0109309D02*
X0108963Y0109309D01*
X0107365Y0110908D02*
X0104153Y0110908D01*
X0102555Y0112506D02*
X0105766Y0112506D01*
X0104168Y0114105D02*
X0100711Y0114105D01*
X0101558Y0115703D02*
X0102569Y0115703D01*
X0107350Y0107711D02*
X0110562Y0107711D01*
X0112160Y0106112D02*
X0108949Y0106112D01*
X0110547Y0104514D02*
X0114115Y0104514D01*
X0115752Y0109309D02*
X0118836Y0109309D01*
X0119803Y0093324D02*
X0107267Y0093324D01*
X0107267Y0091726D02*
X0147792Y0091726D01*
X0146193Y0090127D02*
X0143257Y0090127D01*
X0143894Y0089491D02*
X0142557Y0090827D01*
X0140811Y0091550D01*
X0138922Y0091550D01*
X0137176Y0090827D01*
X0135840Y0089491D01*
X0135719Y0089200D01*
X0131006Y0089200D01*
X0129846Y0090361D01*
X0128302Y0091000D01*
X0121431Y0091000D01*
X0119888Y0090361D01*
X0118706Y0089179D01*
X0118067Y0087635D01*
X0118067Y0085965D01*
X0118706Y0084421D01*
X0119888Y0083239D01*
X0121431Y0082600D01*
X0128302Y0082600D01*
X0129846Y0083239D01*
X0131006Y0084400D01*
X0135719Y0084400D01*
X0135840Y0084109D01*
X0137176Y0082773D01*
X0138922Y0082050D01*
X0140811Y0082050D01*
X0142557Y0082773D01*
X0143894Y0084109D01*
X0144617Y0085855D01*
X0144617Y0087745D01*
X0143894Y0089491D01*
X0144292Y0088529D02*
X0144917Y0088529D01*
X0144917Y0086930D02*
X0144617Y0086930D01*
X0144400Y0085332D02*
X0144917Y0085332D01*
X0145933Y0083733D02*
X0143517Y0083733D01*
X0141015Y0082134D02*
X0147532Y0082134D01*
X0153800Y0083733D02*
X0197938Y0083733D01*
X0197238Y0085332D02*
X0154817Y0085332D01*
X0154817Y0086930D02*
X0197067Y0086930D01*
X0197346Y0088529D02*
X0154817Y0088529D01*
X0153540Y0090127D02*
X0198198Y0090127D01*
X0201917Y0059755D02*
X0130451Y0059755D01*
X0131451Y0058157D02*
X0201917Y0058157D01*
X0201917Y0056558D02*
X0131667Y0056558D01*
X0130042Y0050164D02*
X0190467Y0050164D01*
X0197855Y0048566D02*
X0201917Y0048566D01*
X0201917Y0050164D02*
X0199267Y0050164D01*
X0199267Y0051763D02*
X0201917Y0051763D01*
X0201917Y0053361D02*
X0199267Y0053361D01*
X0197929Y0054960D02*
X0201917Y0054960D01*
X0201917Y0046967D02*
X0158021Y0046967D01*
X0159756Y0045369D02*
X0201917Y0045369D01*
X0201917Y0043770D02*
X0160524Y0043770D01*
X0160848Y0042172D02*
X0201917Y0042172D01*
X0201917Y0040573D02*
X0160832Y0040573D01*
X0160170Y0038975D02*
X0201917Y0038975D01*
X0201917Y0037376D02*
X0158901Y0037376D01*
X0157267Y0035778D02*
X0201917Y0035778D01*
X0201917Y0034179D02*
X0157267Y0034179D01*
X0157267Y0032581D02*
X0201917Y0032581D01*
X0201917Y0030982D02*
X0157267Y0030982D01*
X0157267Y0029384D02*
X0201917Y0029384D01*
X0201917Y0027785D02*
X0157267Y0027785D01*
X0157267Y0026187D02*
X0201917Y0026187D01*
X0201917Y0024588D02*
X0198018Y0024588D01*
X0199067Y0023540D02*
X0196606Y0026000D01*
X0193127Y0026000D01*
X0191327Y0024200D01*
X0188406Y0024200D01*
X0186606Y0026000D01*
X0183127Y0026000D01*
X0180667Y0023540D01*
X0180667Y0020060D01*
X0183127Y0017600D01*
X0186606Y0017600D01*
X0188406Y0019400D01*
X0191327Y0019400D01*
X0193127Y0017600D01*
X0196606Y0017600D01*
X0199067Y0020060D01*
X0199067Y0023540D01*
X0199067Y0022990D02*
X0201917Y0022990D01*
X0201917Y0021391D02*
X0199067Y0021391D01*
X0198799Y0019793D02*
X0201917Y0019793D01*
X0201917Y0018194D02*
X0197200Y0018194D01*
X0194867Y0021800D02*
X0184867Y0021800D01*
X0188018Y0024588D02*
X0191715Y0024588D01*
X0192533Y0018194D02*
X0187200Y0018194D01*
X0182533Y0018194D02*
X0177200Y0018194D01*
X0176606Y0017600D02*
X0179067Y0020060D01*
X0179067Y0023540D01*
X0176606Y0026000D01*
X0173127Y0026000D01*
X0170667Y0023540D01*
X0170667Y0020060D01*
X0173127Y0017600D01*
X0176606Y0017600D01*
X0178799Y0019793D02*
X0180934Y0019793D01*
X0180667Y0021391D02*
X0179067Y0021391D01*
X0179067Y0022990D02*
X0180667Y0022990D01*
X0181715Y0024588D02*
X0178018Y0024588D01*
X0172533Y0018194D02*
X0157200Y0018194D01*
X0158799Y0019793D02*
X0170934Y0019793D01*
X0170667Y0021391D02*
X0159067Y0021391D01*
X0159067Y0022990D02*
X0170667Y0022990D01*
X0171715Y0024588D02*
X0158018Y0024588D01*
X0154867Y0021800D02*
X0154867Y0041800D01*
X0150832Y0037376D02*
X0131667Y0037376D01*
X0131589Y0035778D02*
X0152467Y0035778D01*
X0152467Y0034179D02*
X0130786Y0034179D01*
X0131112Y0038975D02*
X0149563Y0038975D01*
X0148901Y0040573D02*
X0129332Y0040573D01*
X0118621Y0038975D02*
X0109200Y0038975D01*
X0107922Y0040573D02*
X0117699Y0040573D01*
X0116101Y0042172D02*
X0106643Y0042172D01*
X0105364Y0043770D02*
X0114502Y0043770D01*
X0112904Y0045369D02*
X0104085Y0045369D01*
X0102806Y0046967D02*
X0111305Y0046967D01*
X0109707Y0048566D02*
X0101528Y0048566D01*
X0100042Y0050164D02*
X0108108Y0050164D01*
X0106510Y0051763D02*
X0078298Y0051763D01*
X0076699Y0053361D02*
X0089766Y0053361D01*
X0089888Y0053239D02*
X0091431Y0052600D01*
X0098302Y0052600D01*
X0099846Y0053239D01*
X0101027Y0054421D01*
X0101667Y0055965D01*
X0101667Y0057635D01*
X0101027Y0059179D01*
X0099846Y0060361D01*
X0098302Y0061000D01*
X0091431Y0061000D01*
X0089888Y0060361D01*
X0088706Y0059179D01*
X0088067Y0057635D01*
X0088067Y0055965D01*
X0088706Y0054421D01*
X0089888Y0053239D01*
X0088483Y0054960D02*
X0075101Y0054960D01*
X0073502Y0056558D02*
X0088067Y0056558D01*
X0088283Y0058157D02*
X0071904Y0058157D01*
X0070305Y0059755D02*
X0089282Y0059755D01*
X0088067Y0066149D02*
X0052267Y0066149D01*
X0052267Y0067748D02*
X0057696Y0067748D01*
X0058044Y0067400D02*
X0055467Y0069977D01*
X0055467Y0071800D01*
X0059867Y0071800D01*
X0064267Y0071800D01*
X0064267Y0073623D01*
X0061689Y0076200D01*
X0059867Y0076200D01*
X0059867Y0071800D01*
X0059867Y0071800D01*
X0064267Y0071800D01*
X0064267Y0069977D01*
X0061689Y0067400D01*
X0059867Y0067400D01*
X0059867Y0071800D01*
X0059867Y0071800D01*
X0059867Y0071800D01*
X0059867Y0076200D01*
X0058044Y0076200D01*
X0055467Y0073623D01*
X0055467Y0071800D01*
X0059867Y0071800D01*
X0059867Y0067400D01*
X0058044Y0067400D01*
X0059867Y0067748D02*
X0059867Y0067748D01*
X0059867Y0069346D02*
X0059867Y0069346D01*
X0059867Y0070945D02*
X0059867Y0070945D01*
X0059867Y0071800D02*
X0059867Y0071800D01*
X0059867Y0072543D02*
X0059867Y0072543D01*
X0059867Y0074142D02*
X0059867Y0074142D01*
X0059867Y0075740D02*
X0059867Y0075740D01*
X0062149Y0075740D02*
X0076312Y0075740D01*
X0076650Y0077339D02*
X0052241Y0077339D01*
X0052267Y0075740D02*
X0057585Y0075740D01*
X0055986Y0074142D02*
X0052267Y0074142D01*
X0052267Y0072543D02*
X0055467Y0072543D01*
X0055467Y0070945D02*
X0052267Y0070945D01*
X0052267Y0069346D02*
X0056098Y0069346D01*
X0056678Y0064551D02*
X0053055Y0064551D01*
X0052163Y0058157D02*
X0057570Y0058157D01*
X0062163Y0058157D02*
X0065116Y0058157D01*
X0066714Y0056558D02*
X0014667Y0056558D01*
X0014667Y0054960D02*
X0068313Y0054960D01*
X0069911Y0053361D02*
X0014667Y0053361D01*
X0014667Y0051763D02*
X0031371Y0051763D01*
X0031479Y0051871D02*
X0029796Y0050188D01*
X0028886Y0047990D01*
X0028886Y0045610D01*
X0029796Y0043412D01*
X0031479Y0041729D01*
X0033677Y0040819D01*
X0036056Y0040819D01*
X0038255Y0041729D01*
X0039937Y0043412D01*
X0040848Y0045610D01*
X0040848Y0047990D01*
X0039937Y0050188D01*
X0038255Y0051871D01*
X0036056Y0052781D01*
X0033677Y0052781D01*
X0031479Y0051871D01*
X0029786Y0050164D02*
X0023503Y0050164D01*
X0023642Y0050025D02*
X0023091Y0050576D01*
X0022461Y0051034D01*
X0021767Y0051387D01*
X0021026Y0051628D01*
X0020256Y0051750D01*
X0020117Y0051750D01*
X0020117Y0047050D01*
X0024817Y0047050D01*
X0024817Y0047190D01*
X0024695Y0047959D01*
X0024454Y0048700D01*
X0024100Y0049394D01*
X0023642Y0050025D01*
X0024498Y0048566D02*
X0029124Y0048566D01*
X0028886Y0046967D02*
X0020117Y0046967D01*
X0020117Y0047050D02*
X0020117Y0046550D01*
X0024817Y0046550D01*
X0024817Y0046410D01*
X0024695Y0045641D01*
X0024454Y0044900D01*
X0024100Y0044206D01*
X0023642Y0043575D01*
X0023091Y0043024D01*
X0022461Y0042566D01*
X0021767Y0042213D01*
X0021026Y0041972D01*
X0020256Y0041850D01*
X0020117Y0041850D01*
X0020117Y0046550D01*
X0019617Y0046550D01*
X0019617Y0041850D01*
X0019477Y0041850D01*
X0018708Y0041972D01*
X0017967Y0042213D01*
X0017272Y0042566D01*
X0016642Y0043024D01*
X0016091Y0043575D01*
X0015633Y0044206D01*
X0015279Y0044900D01*
X0015039Y0045641D01*
X0014917Y0046410D01*
X0014917Y0046550D01*
X0019617Y0046550D01*
X0019617Y0047050D01*
X0019617Y0051750D01*
X0019477Y0051750D01*
X0018708Y0051628D01*
X0017967Y0051387D01*
X0017272Y0051034D01*
X0016642Y0050576D01*
X0016091Y0050025D01*
X0015633Y0049394D01*
X0015279Y0048700D01*
X0015039Y0047959D01*
X0014917Y0047190D01*
X0014917Y0047050D01*
X0019617Y0047050D01*
X0020117Y0047050D01*
X0019617Y0046967D02*
X0014667Y0046967D01*
X0014667Y0045369D02*
X0015127Y0045369D01*
X0014667Y0043770D02*
X0015949Y0043770D01*
X0014667Y0042172D02*
X0018093Y0042172D01*
X0019617Y0042172D02*
X0020117Y0042172D01*
X0021641Y0042172D02*
X0031036Y0042172D01*
X0029648Y0043770D02*
X0023784Y0043770D01*
X0024606Y0045369D02*
X0028986Y0045369D01*
X0020117Y0045369D02*
X0019617Y0045369D01*
X0019617Y0043770D02*
X0020117Y0043770D01*
X0020117Y0048566D02*
X0019617Y0048566D01*
X0019617Y0050164D02*
X0020117Y0050164D01*
X0016231Y0050164D02*
X0014667Y0050164D01*
X0014667Y0048566D02*
X0015236Y0048566D01*
X0014667Y0040573D02*
X0090401Y0040573D01*
X0089888Y0040361D02*
X0088727Y0039200D01*
X0057531Y0039200D01*
X0056895Y0039836D01*
X0055579Y0040381D01*
X0054154Y0040381D01*
X0052838Y0039836D01*
X0051831Y0038829D01*
X0051286Y0037512D01*
X0051286Y0036088D01*
X0051322Y0036000D01*
X0048127Y0036000D01*
X0045667Y0033540D01*
X0045667Y0030060D01*
X0048127Y0027600D01*
X0051606Y0027600D01*
X0054067Y0030060D01*
X0054067Y0033255D01*
X0054154Y0033219D01*
X0055579Y0033219D01*
X0056895Y0033764D01*
X0057531Y0034400D01*
X0088727Y0034400D01*
X0089888Y0033239D01*
X0091431Y0032600D01*
X0098302Y0032600D01*
X0099846Y0033239D01*
X0101027Y0034421D01*
X0101667Y0035965D01*
X0101667Y0037635D01*
X0101027Y0039179D01*
X0099846Y0040361D01*
X0098302Y0041000D01*
X0091431Y0041000D01*
X0089888Y0040361D01*
X0089357Y0043770D02*
X0040086Y0043770D01*
X0040748Y0045369D02*
X0077904Y0045369D01*
X0076305Y0046967D02*
X0040848Y0046967D01*
X0040609Y0048566D02*
X0074707Y0048566D01*
X0073108Y0050164D02*
X0039947Y0050164D01*
X0038362Y0051763D02*
X0071510Y0051763D01*
X0079896Y0050164D02*
X0089691Y0050164D01*
X0094867Y0046800D02*
X0079867Y0046800D01*
X0064867Y0061800D01*
X0062037Y0067748D02*
X0076423Y0067748D01*
X0075146Y0069346D02*
X0063636Y0069346D01*
X0064267Y0070945D02*
X0074567Y0070945D01*
X0074567Y0072543D02*
X0064267Y0072543D01*
X0063747Y0074142D02*
X0075100Y0074142D01*
X0075152Y0078937D02*
X0051123Y0078937D01*
X0051226Y0078835D02*
X0051226Y0078835D01*
X0049525Y0080536D02*
X0074498Y0080536D01*
X0074367Y0082134D02*
X0047926Y0082134D01*
X0046328Y0083733D02*
X0074712Y0083733D01*
X0075634Y0085332D02*
X0044729Y0085332D01*
X0043131Y0086930D02*
X0076278Y0086930D01*
X0074748Y0088529D02*
X0041532Y0088529D01*
X0039540Y0083733D02*
X0019295Y0083733D01*
X0019336Y0082134D02*
X0041138Y0082134D01*
X0042737Y0080536D02*
X0020367Y0080536D01*
X0020455Y0078937D02*
X0044335Y0078937D01*
X0045934Y0077339D02*
X0020848Y0077339D01*
X0020848Y0075740D02*
X0047467Y0075740D01*
X0047467Y0074142D02*
X0020367Y0074142D01*
X0020281Y0072543D02*
X0047467Y0072543D01*
X0047467Y0070945D02*
X0016361Y0070945D01*
X0014667Y0069346D02*
X0047467Y0069346D01*
X0047467Y0067748D02*
X0014667Y0067748D01*
X0014667Y0066149D02*
X0047467Y0066149D01*
X0046678Y0064551D02*
X0014667Y0064551D01*
X0014667Y0062952D02*
X0045667Y0062952D01*
X0045667Y0061354D02*
X0014667Y0061354D01*
X0014667Y0059755D02*
X0045972Y0059755D01*
X0047570Y0058157D02*
X0014667Y0058157D01*
X0014667Y0038975D02*
X0051977Y0038975D01*
X0051286Y0037376D02*
X0014667Y0037376D01*
X0014667Y0035778D02*
X0047905Y0035778D01*
X0046306Y0034179D02*
X0014667Y0034179D01*
X0014667Y0032581D02*
X0045667Y0032581D01*
X0045667Y0030982D02*
X0014667Y0030982D01*
X0014667Y0029384D02*
X0046343Y0029384D01*
X0047942Y0027785D02*
X0014667Y0027785D01*
X0014667Y0026187D02*
X0113284Y0026187D01*
X0112005Y0027785D02*
X0051791Y0027785D01*
X0053390Y0029384D02*
X0110726Y0029384D01*
X0109447Y0030982D02*
X0054067Y0030982D01*
X0054067Y0032581D02*
X0108169Y0032581D01*
X0106890Y0034179D02*
X0100786Y0034179D01*
X0101589Y0035778D02*
X0105611Y0035778D01*
X0104332Y0037376D02*
X0101667Y0037376D01*
X0101112Y0038975D02*
X0103053Y0038975D01*
X0101775Y0040573D02*
X0099332Y0040573D01*
X0100496Y0042172D02*
X0038697Y0042172D01*
X0054867Y0036800D02*
X0094867Y0036800D01*
X0088948Y0034179D02*
X0057310Y0034179D01*
X0083310Y0067748D02*
X0088113Y0067748D01*
X0088873Y0069346D02*
X0084587Y0069346D01*
X0085167Y0070945D02*
X0091298Y0070945D01*
X0088985Y0074142D02*
X0085603Y0074142D01*
X0085167Y0072543D02*
X0102467Y0072543D01*
X0102467Y0070945D02*
X0098435Y0070945D01*
X0100860Y0069346D02*
X0102467Y0069346D01*
X0102467Y0067748D02*
X0101620Y0067748D01*
X0101667Y0066149D02*
X0102467Y0066149D01*
X0102467Y0064551D02*
X0101081Y0064551D01*
X0100451Y0059755D02*
X0102467Y0059755D01*
X0102467Y0058157D02*
X0101451Y0058157D01*
X0101667Y0056558D02*
X0102467Y0056558D01*
X0103313Y0054960D02*
X0101250Y0054960D01*
X0099968Y0053361D02*
X0104911Y0053361D01*
X0099867Y0046800D02*
X0119867Y0021800D01*
X0144867Y0021800D01*
X0141715Y0024588D02*
X0120710Y0024588D01*
X0119431Y0026187D02*
X0152467Y0026187D01*
X0152467Y0027785D02*
X0118152Y0027785D01*
X0116873Y0029384D02*
X0152467Y0029384D01*
X0152467Y0030982D02*
X0115594Y0030982D01*
X0114316Y0032581D02*
X0152467Y0032581D01*
X0151715Y0024588D02*
X0148018Y0024588D01*
X0149067Y0022990D02*
X0150667Y0022990D01*
X0150667Y0021391D02*
X0149067Y0021391D01*
X0148799Y0019793D02*
X0150934Y0019793D01*
X0152533Y0018194D02*
X0147200Y0018194D01*
X0142533Y0018194D02*
X0014667Y0018194D01*
X0014667Y0019793D02*
X0118480Y0019793D01*
X0117120Y0021391D02*
X0014667Y0021391D01*
X0014667Y0022990D02*
X0115841Y0022990D01*
X0114563Y0024588D02*
X0014667Y0024588D01*
X0079867Y0071800D02*
X0084867Y0076800D01*
X0094867Y0076800D01*
X0099422Y0080536D02*
X0102467Y0080536D01*
X0102467Y0082134D02*
X0085367Y0082134D01*
X0085235Y0080536D02*
X0090311Y0080536D01*
X0089394Y0083733D02*
X0085022Y0083733D01*
X0100339Y0083733D02*
X0102467Y0083733D01*
X0102467Y0085332D02*
X0101404Y0085332D01*
X0101667Y0086930D02*
X0102467Y0086930D01*
X0102467Y0088529D02*
X0101297Y0088529D01*
X0102467Y0090127D02*
X0100079Y0090127D01*
X0107267Y0090127D02*
X0119654Y0090127D01*
X0118437Y0088529D02*
X0107267Y0088529D01*
X0107267Y0086930D02*
X0118067Y0086930D01*
X0118329Y0085332D02*
X0107267Y0085332D01*
X0107267Y0083733D02*
X0119394Y0083733D01*
X0120578Y0080878D02*
X0119961Y0080563D01*
X0119400Y0080156D01*
X0118911Y0079666D01*
X0118503Y0079106D01*
X0118189Y0078489D01*
X0117975Y0077830D01*
X0117867Y0077146D01*
X0117867Y0076800D01*
X0117867Y0076454D01*
X0117975Y0075770D01*
X0118189Y0075111D01*
X0118503Y0074494D01*
X0118911Y0073934D01*
X0119400Y0073444D01*
X0119961Y0073037D01*
X0120578Y0072722D01*
X0121236Y0072508D01*
X0121920Y0072400D01*
X0124867Y0072400D01*
X0124867Y0076800D01*
X0124867Y0076800D01*
X0124867Y0076800D01*
X0124867Y0081200D01*
X0121920Y0081200D01*
X0121236Y0081092D01*
X0120578Y0080878D01*
X0119923Y0080536D02*
X0107267Y0080536D01*
X0107267Y0082134D02*
X0138718Y0082134D01*
X0136216Y0083733D02*
X0130339Y0083733D01*
X0124867Y0086800D02*
X0139867Y0086800D01*
X0136476Y0090127D02*
X0130079Y0090127D01*
X0124867Y0080536D02*
X0124867Y0080536D01*
X0124867Y0078937D02*
X0124867Y0078937D01*
X0124867Y0077339D02*
X0124867Y0077339D01*
X0124867Y0076800D02*
X0124867Y0076800D01*
X0117867Y0076800D01*
X0124867Y0076800D01*
X0124867Y0075740D02*
X0124867Y0075740D01*
X0124867Y0074142D02*
X0124867Y0074142D01*
X0124867Y0072543D02*
X0124867Y0072543D01*
X0121128Y0072543D02*
X0107267Y0072543D01*
X0107267Y0070945D02*
X0121298Y0070945D01*
X0118873Y0069346D02*
X0107267Y0069346D01*
X0107267Y0067748D02*
X0118113Y0067748D01*
X0118067Y0066149D02*
X0107267Y0066149D01*
X0107267Y0064551D02*
X0118652Y0064551D01*
X0118759Y0074142D02*
X0107267Y0074142D01*
X0107267Y0075740D02*
X0117984Y0075740D01*
X0117897Y0077339D02*
X0107267Y0077339D01*
X0107267Y0078937D02*
X0118418Y0078937D01*
X0102467Y0078937D02*
X0101127Y0078937D01*
X0101667Y0077339D02*
X0102467Y0077339D01*
X0102467Y0075740D02*
X0101574Y0075740D01*
X0100748Y0074142D02*
X0102467Y0074142D01*
X0102720Y0099718D02*
X0100771Y0099718D01*
X0088668Y0104514D02*
X0042621Y0104514D01*
X0042621Y0106112D02*
X0088067Y0106112D01*
X0088098Y0107711D02*
X0042621Y0107711D01*
X0042621Y0109309D02*
X0088836Y0109309D01*
X0088344Y0125294D02*
X0069766Y0125294D01*
X0069867Y0127400D02*
X0071689Y0127400D01*
X0074267Y0129977D01*
X0074267Y0131800D01*
X0074267Y0133623D01*
X0071689Y0136200D01*
X0069867Y0136200D01*
X0069867Y0131800D01*
X0074267Y0131800D01*
X0069867Y0131800D01*
X0069867Y0131800D01*
X0069867Y0127400D01*
X0069867Y0131800D01*
X0069867Y0131800D01*
X0069867Y0131800D01*
X0069867Y0136200D01*
X0068044Y0136200D01*
X0065467Y0133623D01*
X0065467Y0131800D01*
X0065467Y0129977D01*
X0068044Y0127400D01*
X0069867Y0127400D01*
X0069867Y0128491D02*
X0069867Y0128491D01*
X0069867Y0130090D02*
X0069867Y0130090D01*
X0069867Y0131688D02*
X0069867Y0131688D01*
X0069867Y0131800D02*
X0065467Y0131800D01*
X0069867Y0131800D01*
X0069867Y0131800D01*
X0069867Y0133287D02*
X0069867Y0133287D01*
X0069867Y0134885D02*
X0069867Y0134885D01*
X0066730Y0134885D02*
X0062267Y0134885D01*
X0062267Y0133287D02*
X0065467Y0133287D01*
X0065467Y0131688D02*
X0063372Y0131688D01*
X0064971Y0130090D02*
X0065467Y0130090D01*
X0066569Y0128491D02*
X0066953Y0128491D01*
X0068168Y0126893D02*
X0088067Y0126893D01*
X0088421Y0128491D02*
X0082498Y0128491D01*
X0079867Y0131800D02*
X0079867Y0151800D01*
X0079867Y0176800D01*
X0124867Y0176800D01*
X0134867Y0166800D01*
X0124867Y0166800D01*
X0126621Y0171651D02*
X0082267Y0171651D01*
X0082267Y0170053D02*
X0089580Y0170053D01*
X0089888Y0170361D02*
X0088706Y0169179D01*
X0088067Y0167635D01*
X0088067Y0165965D01*
X0088706Y0164421D01*
X0089888Y0163239D01*
X0091431Y0162600D01*
X0098302Y0162600D01*
X0099846Y0163239D01*
X0101027Y0164421D01*
X0101667Y0165965D01*
X0101667Y0167635D01*
X0101027Y0169179D01*
X0099846Y0170361D01*
X0098302Y0171000D01*
X0091431Y0171000D01*
X0089888Y0170361D01*
X0088406Y0168454D02*
X0082267Y0168454D01*
X0082267Y0166856D02*
X0088067Y0166856D01*
X0088360Y0165257D02*
X0082267Y0165257D01*
X0082267Y0163659D02*
X0089468Y0163659D01*
X0099602Y0160462D02*
X0119821Y0160462D01*
X0118380Y0158863D02*
X0101158Y0158863D01*
X0101667Y0157265D02*
X0117885Y0157265D01*
X0117867Y0156800D02*
X0124867Y0156800D01*
X0117867Y0156800D01*
X0118009Y0155666D02*
X0101543Y0155666D01*
X0100674Y0154068D02*
X0118813Y0154068D01*
X0124867Y0154068D02*
X0124867Y0154068D01*
X0124867Y0155666D02*
X0124867Y0155666D01*
X0124867Y0156800D02*
X0124867Y0156800D01*
X0124867Y0157265D02*
X0124867Y0157265D01*
X0124867Y0158863D02*
X0124867Y0158863D01*
X0124867Y0160462D02*
X0124867Y0160462D01*
X0129913Y0160462D02*
X0132306Y0160462D01*
X0132068Y0163659D02*
X0130265Y0163659D01*
X0137665Y0163659D02*
X0154967Y0163659D01*
X0154967Y0165257D02*
X0139067Y0165257D01*
X0139067Y0166856D02*
X0154967Y0166856D01*
X0154967Y0168454D02*
X0139067Y0168454D01*
X0137554Y0170053D02*
X0154967Y0170053D01*
X0154967Y0171651D02*
X0133410Y0171651D01*
X0131811Y0173250D02*
X0154967Y0173250D01*
X0154967Y0174848D02*
X0130213Y0174848D01*
X0128614Y0176447D02*
X0154967Y0176447D01*
X0154967Y0178045D02*
X0127016Y0178045D01*
X0125023Y0173250D02*
X0082267Y0173250D01*
X0077467Y0173250D02*
X0072539Y0173250D01*
X0071689Y0172400D02*
X0074267Y0174977D01*
X0074267Y0176800D01*
X0074267Y0178623D01*
X0071689Y0181200D01*
X0069867Y0181200D01*
X0069867Y0176800D01*
X0074267Y0176800D01*
X0069867Y0176800D01*
X0069867Y0176800D01*
X0069867Y0172400D01*
X0071689Y0172400D01*
X0069867Y0172400D02*
X0069867Y0176800D01*
X0069867Y0176800D01*
X0069867Y0176800D01*
X0069867Y0181200D01*
X0068044Y0181200D01*
X0065467Y0178623D01*
X0065467Y0176800D01*
X0065467Y0174977D01*
X0068044Y0172400D01*
X0069867Y0172400D01*
X0069867Y0173250D02*
X0069867Y0173250D01*
X0069867Y0174848D02*
X0069867Y0174848D01*
X0069867Y0176447D02*
X0069867Y0176447D01*
X0069867Y0176800D02*
X0065467Y0176800D01*
X0069867Y0176800D01*
X0069867Y0176800D01*
X0069867Y0178045D02*
X0069867Y0178045D01*
X0069867Y0179644D02*
X0069867Y0179644D01*
X0071985Y0181242D02*
X0062267Y0181242D01*
X0062267Y0179644D02*
X0066488Y0179644D01*
X0065467Y0178045D02*
X0062267Y0178045D01*
X0062267Y0176447D02*
X0065467Y0176447D01*
X0065596Y0174848D02*
X0062267Y0174848D01*
X0062267Y0173250D02*
X0067194Y0173250D01*
X0062267Y0171651D02*
X0077467Y0171651D01*
X0077467Y0170053D02*
X0062267Y0170053D01*
X0062267Y0168454D02*
X0077467Y0168454D01*
X0077467Y0166856D02*
X0062267Y0166856D01*
X0062267Y0165257D02*
X0077467Y0165257D01*
X0077467Y0163659D02*
X0062267Y0163659D01*
X0062267Y0162060D02*
X0077467Y0162060D01*
X0077467Y0160462D02*
X0062267Y0160462D01*
X0062267Y0158863D02*
X0077467Y0158863D01*
X0077467Y0157265D02*
X0062267Y0157265D01*
X0062267Y0155666D02*
X0066732Y0155666D01*
X0067816Y0156750D02*
X0064917Y0153850D01*
X0064917Y0151800D01*
X0064917Y0149750D01*
X0067816Y0146850D01*
X0069867Y0146850D01*
X0071917Y0146850D01*
X0074817Y0149750D01*
X0074817Y0151800D01*
X0074817Y0153850D01*
X0071917Y0156750D01*
X0069867Y0156750D01*
X0069867Y0151800D01*
X0074817Y0151800D01*
X0069867Y0151800D01*
X0069867Y0151800D01*
X0069867Y0146850D01*
X0069867Y0151800D01*
X0069867Y0151800D01*
X0069867Y0151800D01*
X0069867Y0156750D01*
X0067816Y0156750D01*
X0069867Y0155666D02*
X0069867Y0155666D01*
X0069867Y0154068D02*
X0069867Y0154068D01*
X0069867Y0152469D02*
X0069867Y0152469D01*
X0069867Y0151800D02*
X0069867Y0151800D01*
X0064917Y0151800D01*
X0069867Y0151800D01*
X0069867Y0150870D02*
X0069867Y0150870D01*
X0069867Y0149272D02*
X0069867Y0149272D01*
X0069867Y0147673D02*
X0069867Y0147673D01*
X0066993Y0147673D02*
X0062267Y0147673D01*
X0062267Y0146075D02*
X0077467Y0146075D01*
X0077467Y0144476D02*
X0062267Y0144476D01*
X0062267Y0142878D02*
X0077467Y0142878D01*
X0077467Y0141279D02*
X0062267Y0141279D01*
X0062267Y0139681D02*
X0077467Y0139681D01*
X0077467Y0138082D02*
X0062267Y0138082D01*
X0062267Y0136484D02*
X0077467Y0136484D01*
X0077012Y0134885D02*
X0073004Y0134885D01*
X0074267Y0133287D02*
X0075667Y0133287D01*
X0075667Y0131688D02*
X0074267Y0131688D01*
X0074267Y0130090D02*
X0075667Y0130090D01*
X0077236Y0128491D02*
X0072781Y0128491D01*
X0069867Y0121800D02*
X0059867Y0131800D01*
X0059867Y0186800D01*
X0044867Y0201800D01*
X0039867Y0201800D01*
X0034867Y0196800D01*
X0034867Y0191800D01*
X0036717Y0189950D01*
X0040221Y0189950D01*
X0036704Y0186038D02*
X0014667Y0186038D01*
X0014667Y0187636D02*
X0036030Y0187636D01*
X0034038Y0189235D02*
X0014667Y0189235D01*
X0014667Y0190833D02*
X0032669Y0190833D01*
X0032467Y0192432D02*
X0014667Y0192432D01*
X0014667Y0194030D02*
X0023262Y0194030D01*
X0026471Y0194030D02*
X0032467Y0194030D01*
X0032467Y0195629D02*
X0029522Y0195629D01*
X0031038Y0197227D02*
X0032467Y0197227D01*
X0031700Y0198826D02*
X0033498Y0198826D01*
X0032077Y0200424D02*
X0035097Y0200424D01*
X0036695Y0202023D02*
X0032077Y0202023D01*
X0031656Y0203621D02*
X0038294Y0203621D01*
X0054432Y0195629D02*
X0082467Y0195629D01*
X0082467Y0194030D02*
X0056030Y0194030D01*
X0057629Y0192432D02*
X0082104Y0192432D01*
X0080506Y0190833D02*
X0059227Y0190833D01*
X0060826Y0189235D02*
X0078907Y0189235D01*
X0082498Y0186038D02*
X0087235Y0186038D01*
X0085636Y0187636D02*
X0084097Y0187636D01*
X0084867Y0191800D02*
X0094867Y0181800D01*
X0104867Y0181800D01*
X0108167Y0184439D02*
X0111283Y0184439D01*
X0110467Y0182841D02*
X0109067Y0182841D01*
X0109067Y0181242D02*
X0110467Y0181242D01*
X0110467Y0181800D02*
X0114867Y0181800D01*
X0114867Y0181800D01*
X0110467Y0181800D01*
X0110800Y0179644D02*
X0108650Y0179644D01*
X0114867Y0182841D02*
X0114867Y0182841D01*
X0114867Y0184439D02*
X0114867Y0184439D01*
X0114867Y0186038D02*
X0114867Y0186038D01*
X0116851Y0186038D02*
X0132235Y0186038D01*
X0130636Y0187636D02*
X0092425Y0187636D01*
X0094023Y0186038D02*
X0112882Y0186038D01*
X0118450Y0184439D02*
X0133833Y0184439D01*
X0135432Y0182841D02*
X0119267Y0182841D01*
X0119267Y0181242D02*
X0137030Y0181242D01*
X0138507Y0179765D02*
X0139389Y0179400D01*
X0147202Y0179400D01*
X0147838Y0178764D01*
X0149154Y0178219D01*
X0150579Y0178219D01*
X0151895Y0178764D01*
X0152903Y0179771D01*
X0153448Y0181088D01*
X0153448Y0182512D01*
X0152903Y0183829D01*
X0151895Y0184836D01*
X0150579Y0185381D01*
X0149154Y0185381D01*
X0147838Y0184836D01*
X0147202Y0184200D01*
X0140861Y0184200D01*
X0133448Y0191613D01*
X0133448Y0192512D01*
X0132903Y0193829D01*
X0131895Y0194836D01*
X0130579Y0195381D01*
X0129154Y0195381D01*
X0127838Y0194836D01*
X0126831Y0193829D01*
X0126286Y0192512D01*
X0126286Y0191088D01*
X0126831Y0189771D01*
X0127838Y0188764D01*
X0129154Y0188219D01*
X0130054Y0188219D01*
X0138507Y0179765D01*
X0138801Y0179644D02*
X0118933Y0179644D01*
X0119580Y0170053D02*
X0100154Y0170053D01*
X0101328Y0168454D02*
X0118406Y0168454D01*
X0118067Y0166856D02*
X0101667Y0166856D01*
X0101374Y0165257D02*
X0118360Y0165257D01*
X0119468Y0163659D02*
X0100265Y0163659D01*
X0093801Y0179644D02*
X0082963Y0179644D01*
X0079301Y0182841D02*
X0090432Y0182841D01*
X0088833Y0184439D02*
X0080900Y0184439D01*
X0077367Y0184300D02*
X0084867Y0191800D01*
X0084867Y0201800D01*
X0087677Y0197227D02*
X0090981Y0197227D01*
X0089625Y0198826D02*
X0089371Y0198826D01*
X0087267Y0195629D02*
X0154967Y0195629D01*
X0154967Y0194030D02*
X0132701Y0194030D01*
X0133448Y0192432D02*
X0154967Y0192432D01*
X0154967Y0190833D02*
X0134227Y0190833D01*
X0135826Y0189235D02*
X0154967Y0189235D01*
X0154967Y0187636D02*
X0137425Y0187636D01*
X0139023Y0186038D02*
X0154967Y0186038D01*
X0154967Y0184439D02*
X0152292Y0184439D01*
X0153312Y0182841D02*
X0154967Y0182841D01*
X0154967Y0181242D02*
X0153448Y0181242D01*
X0152775Y0179644D02*
X0154967Y0179644D01*
X0159767Y0179644D02*
X0166083Y0179644D01*
X0165667Y0181242D02*
X0159767Y0181242D01*
X0159767Y0182841D02*
X0165667Y0182841D01*
X0166566Y0184439D02*
X0159767Y0184439D01*
X0159767Y0186038D02*
X0201917Y0186038D01*
X0201917Y0187636D02*
X0159767Y0187636D01*
X0159767Y0189235D02*
X0201917Y0189235D01*
X0201917Y0190833D02*
X0159767Y0190833D01*
X0159767Y0192432D02*
X0201917Y0192432D01*
X0201917Y0194030D02*
X0159767Y0194030D01*
X0159767Y0195629D02*
X0201917Y0195629D01*
X0201917Y0197227D02*
X0200177Y0197227D01*
X0201871Y0198826D02*
X0201917Y0198826D01*
X0194557Y0197227D02*
X0190177Y0197227D01*
X0191871Y0198826D02*
X0192862Y0198826D01*
X0184557Y0197227D02*
X0180430Y0197227D01*
X0182004Y0198826D02*
X0182862Y0198826D01*
X0177567Y0198826D02*
X0177167Y0198826D01*
X0177167Y0200424D02*
X0177567Y0200424D01*
X0177567Y0197227D02*
X0177167Y0197227D01*
X0174303Y0197227D02*
X0170177Y0197227D01*
X0171871Y0198826D02*
X0172729Y0198826D01*
X0164557Y0197227D02*
X0160177Y0197227D01*
X0161871Y0198826D02*
X0162862Y0198826D01*
X0157367Y0201800D02*
X0157367Y0139300D01*
X0159460Y0138082D02*
X0167467Y0138082D01*
X0167467Y0136484D02*
X0157945Y0136484D01*
X0156346Y0134885D02*
X0167467Y0134885D01*
X0167467Y0133287D02*
X0154748Y0133287D01*
X0153149Y0131688D02*
X0166361Y0131688D01*
X0164762Y0130090D02*
X0151551Y0130090D01*
X0159767Y0139681D02*
X0167467Y0139681D01*
X0167467Y0141279D02*
X0159767Y0141279D01*
X0159767Y0142878D02*
X0167467Y0142878D01*
X0167467Y0144476D02*
X0159767Y0144476D01*
X0159767Y0146075D02*
X0167467Y0146075D01*
X0167467Y0147673D02*
X0159767Y0147673D01*
X0154967Y0152469D02*
X0136758Y0152469D01*
X0138357Y0154068D02*
X0154967Y0154068D01*
X0154967Y0155666D02*
X0139267Y0155666D01*
X0139267Y0157265D02*
X0154967Y0157265D01*
X0154967Y0158863D02*
X0139026Y0158863D01*
X0131377Y0154068D02*
X0130920Y0154068D01*
X0124867Y0152469D02*
X0124867Y0152469D01*
X0104353Y0139681D02*
X0100525Y0139681D01*
X0090760Y0142878D02*
X0082267Y0142878D01*
X0082267Y0144476D02*
X0088683Y0144476D01*
X0088067Y0146075D02*
X0082267Y0146075D01*
X0082317Y0147673D02*
X0088082Y0147673D01*
X0088799Y0149272D02*
X0083961Y0149272D01*
X0077417Y0147673D02*
X0072740Y0147673D01*
X0074339Y0149272D02*
X0075772Y0149272D01*
X0075117Y0150870D02*
X0074817Y0150870D01*
X0074817Y0152469D02*
X0075117Y0152469D01*
X0074599Y0154068D02*
X0075665Y0154068D01*
X0077015Y0155666D02*
X0073001Y0155666D01*
X0065134Y0154068D02*
X0062267Y0154068D01*
X0062267Y0152469D02*
X0064917Y0152469D01*
X0064917Y0150870D02*
X0062267Y0150870D01*
X0062267Y0149272D02*
X0065394Y0149272D01*
X0074137Y0174848D02*
X0075879Y0174848D01*
X0075667Y0176447D02*
X0074267Y0176447D01*
X0074267Y0178045D02*
X0075667Y0178045D01*
X0076771Y0179644D02*
X0073245Y0179644D01*
X0070667Y0182841D02*
X0062267Y0182841D01*
X0062267Y0184439D02*
X0070667Y0184439D01*
X0070667Y0186038D02*
X0062267Y0186038D01*
X0062118Y0187636D02*
X0072263Y0187636D01*
X0074867Y0184300D02*
X0077367Y0184300D01*
X0077749Y0181242D02*
X0092030Y0181242D01*
X0095622Y0184439D02*
X0101566Y0184439D01*
X0090826Y0189235D02*
X0127367Y0189235D01*
X0126391Y0190833D02*
X0089227Y0190833D01*
X0087629Y0192432D02*
X0126286Y0192432D01*
X0127033Y0194030D02*
X0087267Y0194030D01*
X0082057Y0197227D02*
X0077677Y0197227D01*
X0079371Y0198826D02*
X0080362Y0198826D01*
X0072057Y0197227D02*
X0067677Y0197227D01*
X0069371Y0198826D02*
X0070362Y0198826D01*
X0062057Y0197227D02*
X0057677Y0197227D01*
X0059371Y0198826D02*
X0060362Y0198826D01*
X0040221Y0183650D02*
X0040221Y0097154D01*
X0039867Y0096800D01*
X0036537Y0098120D02*
X0020057Y0098120D01*
X0020167Y0096521D02*
X0036286Y0096521D01*
X0036768Y0094923D02*
X0019826Y0094923D01*
X0019395Y0099718D02*
X0037720Y0099718D01*
X0037821Y0101317D02*
X0017812Y0101317D01*
X0018477Y0102915D02*
X0037821Y0102915D01*
X0037821Y0104514D02*
X0019656Y0104514D01*
X0020167Y0106112D02*
X0037821Y0106112D01*
X0037821Y0107711D02*
X0020167Y0107711D01*
X0019564Y0109309D02*
X0037821Y0109309D01*
X0037821Y0110908D02*
X0018254Y0110908D01*
X0018068Y0112506D02*
X0037821Y0112506D01*
X0037821Y0114105D02*
X0019487Y0114105D01*
X0020149Y0115703D02*
X0037821Y0115703D01*
X0037821Y0117302D02*
X0020167Y0117302D01*
X0019733Y0118900D02*
X0037821Y0118900D01*
X0037821Y0120499D02*
X0018663Y0120499D01*
X0017363Y0122097D02*
X0037821Y0122097D01*
X0037821Y0123696D02*
X0019258Y0123696D01*
X0019980Y0125294D02*
X0037821Y0125294D01*
X0037821Y0126893D02*
X0020167Y0126893D01*
X0019903Y0128491D02*
X0037821Y0128491D01*
X0037821Y0130090D02*
X0019072Y0130090D01*
X0016915Y0131688D02*
X0037821Y0131688D01*
X0037821Y0133287D02*
X0018849Y0133287D01*
X0019810Y0134885D02*
X0037821Y0134885D01*
X0037821Y0136484D02*
X0020167Y0136484D01*
X0020072Y0138082D02*
X0037821Y0138082D01*
X0037821Y0139681D02*
X0019410Y0139681D01*
X0017883Y0141279D02*
X0037821Y0141279D01*
X0037821Y0142878D02*
X0018440Y0142878D01*
X0019641Y0144476D02*
X0037821Y0144476D01*
X0037821Y0146075D02*
X0020167Y0146075D01*
X0020167Y0147673D02*
X0037821Y0147673D01*
X0037821Y0149272D02*
X0019579Y0149272D01*
X0018291Y0150870D02*
X0037821Y0150870D01*
X0037821Y0152469D02*
X0014667Y0152469D01*
X0014667Y0154068D02*
X0037821Y0154068D01*
X0037821Y0155666D02*
X0014667Y0155666D01*
X0014667Y0157265D02*
X0037821Y0157265D01*
X0037821Y0158863D02*
X0014667Y0158863D01*
X0014667Y0160462D02*
X0037821Y0160462D01*
X0037821Y0162060D02*
X0014667Y0162060D01*
X0014667Y0163659D02*
X0037821Y0163659D01*
X0037821Y0165257D02*
X0026391Y0165257D01*
X0026301Y0165220D02*
X0028951Y0166317D01*
X0030979Y0168346D01*
X0032077Y0170996D01*
X0032077Y0173864D01*
X0030979Y0176514D01*
X0028951Y0178542D01*
X0026301Y0179640D01*
X0023432Y0179640D01*
X0020782Y0178542D01*
X0018754Y0176514D01*
X0017656Y0173864D01*
X0017656Y0170996D01*
X0018754Y0168346D01*
X0020782Y0166317D01*
X0023432Y0165220D01*
X0026301Y0165220D01*
X0023342Y0165257D02*
X0014667Y0165257D01*
X0014667Y0166856D02*
X0020244Y0166856D01*
X0018709Y0168454D02*
X0014667Y0168454D01*
X0014667Y0170053D02*
X0018047Y0170053D01*
X0017656Y0171651D02*
X0014667Y0171651D01*
X0014667Y0173250D02*
X0017656Y0173250D01*
X0018064Y0174848D02*
X0014667Y0174848D01*
X0014667Y0176447D02*
X0018726Y0176447D01*
X0020285Y0178045D02*
X0014667Y0178045D01*
X0014667Y0179644D02*
X0037821Y0179644D01*
X0037821Y0178045D02*
X0029448Y0178045D01*
X0031007Y0176447D02*
X0037821Y0176447D01*
X0037821Y0174848D02*
X0031669Y0174848D01*
X0032077Y0173250D02*
X0037821Y0173250D01*
X0037821Y0171651D02*
X0032077Y0171651D01*
X0031686Y0170053D02*
X0037821Y0170053D01*
X0037821Y0168454D02*
X0031024Y0168454D01*
X0029489Y0166856D02*
X0037821Y0166856D01*
X0036725Y0181242D02*
X0014667Y0181242D01*
X0014667Y0182841D02*
X0036046Y0182841D01*
X0036046Y0184439D02*
X0014667Y0184439D01*
X0014667Y0195629D02*
X0020211Y0195629D01*
X0018695Y0197227D02*
X0014667Y0197227D01*
X0014667Y0198826D02*
X0018033Y0198826D01*
X0017656Y0200424D02*
X0014667Y0200424D01*
X0014667Y0202023D02*
X0017656Y0202023D01*
X0018078Y0203621D02*
X0014667Y0203621D01*
X0098753Y0197227D02*
X0144557Y0197227D01*
X0142862Y0198826D02*
X0100109Y0198826D01*
X0100771Y0200424D02*
X0142200Y0200424D01*
X0142067Y0202023D02*
X0100848Y0202023D01*
X0100586Y0203621D02*
X0142384Y0203621D01*
X0150177Y0197227D02*
X0154557Y0197227D01*
X0152862Y0198826D02*
X0151871Y0198826D01*
X0147441Y0184439D02*
X0140622Y0184439D01*
X0139867Y0181800D02*
X0129867Y0191800D01*
X0139867Y0181800D02*
X0149867Y0181800D01*
X0159767Y0178045D02*
X0167682Y0178045D01*
X0169867Y0181800D02*
X0179867Y0181800D01*
X0194867Y0166800D01*
X0199867Y0166800D01*
X0196148Y0162060D02*
X0186297Y0162060D01*
X0186026Y0161972D02*
X0186767Y0162213D01*
X0187461Y0162566D01*
X0188091Y0163024D01*
X0188642Y0163575D01*
X0189100Y0164206D01*
X0189454Y0164900D01*
X0189695Y0165641D01*
X0189817Y0166410D01*
X0189817Y0166550D01*
X0185117Y0166550D01*
X0185117Y0167050D01*
X0184617Y0167050D01*
X0184617Y0171750D01*
X0184477Y0171750D01*
X0183708Y0171628D01*
X0182967Y0171387D01*
X0182272Y0171034D01*
X0181642Y0170576D01*
X0181091Y0170025D01*
X0180633Y0169394D01*
X0180279Y0168700D01*
X0180039Y0167959D01*
X0179917Y0167190D01*
X0179917Y0167050D01*
X0184617Y0167050D01*
X0184617Y0166550D01*
X0185117Y0166550D01*
X0185117Y0161850D01*
X0185256Y0161850D01*
X0186026Y0161972D01*
X0185117Y0162060D02*
X0184617Y0162060D01*
X0184617Y0161850D02*
X0184617Y0166550D01*
X0179917Y0166550D01*
X0179917Y0166410D01*
X0180039Y0165641D01*
X0180279Y0164900D01*
X0180633Y0164206D01*
X0181091Y0163575D01*
X0181642Y0163024D01*
X0182272Y0162566D01*
X0182967Y0162213D01*
X0183708Y0161972D01*
X0184477Y0161850D01*
X0184617Y0161850D01*
X0183436Y0162060D02*
X0159767Y0162060D01*
X0159767Y0163659D02*
X0181030Y0163659D01*
X0180163Y0165257D02*
X0159767Y0165257D01*
X0159767Y0166856D02*
X0184617Y0166856D01*
X0185117Y0166856D02*
X0191417Y0166856D01*
X0189818Y0168454D02*
X0189534Y0168454D01*
X0186621Y0171651D02*
X0185880Y0171651D01*
X0185117Y0171651D02*
X0184617Y0171651D01*
X0183853Y0171651D02*
X0159767Y0171651D01*
X0159767Y0170053D02*
X0181119Y0170053D01*
X0180199Y0168454D02*
X0159767Y0168454D01*
X0159767Y0173250D02*
X0185023Y0173250D01*
X0183424Y0174848D02*
X0159767Y0174848D01*
X0159767Y0176447D02*
X0181826Y0176447D01*
X0180227Y0178045D02*
X0172052Y0178045D01*
X0173167Y0184439D02*
X0201917Y0184439D01*
X0201917Y0182841D02*
X0182220Y0182841D01*
X0183819Y0181242D02*
X0201917Y0181242D01*
X0201917Y0179644D02*
X0185417Y0179644D01*
X0187016Y0178045D02*
X0201917Y0178045D01*
X0201917Y0176447D02*
X0188614Y0176447D01*
X0190213Y0174848D02*
X0201917Y0174848D01*
X0201917Y0173250D02*
X0191811Y0173250D01*
X0193410Y0171651D02*
X0196259Y0171651D01*
X0193015Y0165257D02*
X0189570Y0165257D01*
X0188703Y0163659D02*
X0194694Y0163659D01*
X0185117Y0163659D02*
X0184617Y0163659D01*
X0184617Y0165257D02*
X0185117Y0165257D01*
X0185117Y0168454D02*
X0184617Y0168454D01*
X0184617Y0170053D02*
X0185117Y0170053D01*
X0119691Y0050164D02*
X0114896Y0050164D01*
X0116495Y0048566D02*
X0118452Y0048566D01*
X0118067Y0037376D02*
X0110479Y0037376D01*
X0111758Y0035778D02*
X0118144Y0035778D01*
X0118948Y0034179D02*
X0113037Y0034179D01*
X0099867Y0046800D02*
X0094867Y0046800D01*
D20*
X0054867Y0036800D03*
X0049867Y0061800D03*
X0039867Y0096800D03*
X0104867Y0096800D03*
X0109867Y0141800D03*
X0149867Y0181800D03*
X0129867Y0191800D03*
X0129867Y0191800D03*
M02*
